<svg id="Layer_1" data-name="Layer 1" xmlns="http://www.w3.org/2000/svg" xmlns:xlink="http://www.w3.org/1999/xlink" viewBox="0 0 215.76 206.86"><defs><style>.cls-1{fill:none;}.cls-2{clip-path:url(#clip-path);}.cls-3{fill:#f2f2f2;}</style><clipPath id="clip-path" transform="translate(-602.04 -329.35)"><rect class="cls-1" x="592.4" y="441.76" width="229.82" height="20.9"/></clipPath></defs><title>alps-tour</title><path d="M764.51,479.74a4,4,0,0,1-2.86-1.42c-1.06-1.22-1.45-2.47-1.07-5.15l.2-1c2.17-6.69,7.45-6.54,7.51-6.54l-1.37.67a11.56,11.56,0,0,0-4.08,6.64c-.75,2-.39,4.26-.1,4.41.25,1.37,2.46,1.75,2.46,1.75l1.81.09-1,.39a8.61,8.61,0,0,1-1.47.15" transform="translate(-602.04 -329.35)"/><path d="M781.34,471.24c-4.94-.4-7.35,5.9-7.35,5.9-2.07,6.16,1.44,6.73,1.44,6.73s-3.26-6,5.91-12.63" transform="translate(-602.04 -329.35)"/><path d="M790.12,475.11c-2.08-.24-5.23,3.93-5.78,5.17-.76,2.28-1.83,4.48-.23,6a16.16,16.16,0,0,1,6-11.12" transform="translate(-602.04 -329.35)"/><path d="M796,477.64s-2,0-4.77,5.18c-2.19,4.81-.56,4.84-.56,4.84a17.7,17.7,0,0,1,5.33-10" transform="translate(-602.04 -329.35)"/><path d="M753.71,458.49s-6.69-.81-9,6.95c-1.17,6.55,3.9,7.95,3.85,7.95-5-11.14,5.13-14.9,5.13-14.9" transform="translate(-602.04 -329.35)"/><path d="M782,453.1s-4.57-.38-6.57,6.14c0,.05-2,5.71,2.26,7.73-2.47-8.32,4.31-13.87,4.31-13.87" transform="translate(-602.04 -329.35)"/><path d="M792,459.18c-3.13-.42-5.49,5.39-5.49,5.39s-2.16,5.13.72,7.15c0-7.41,2.46-11.52,4.77-12.54" transform="translate(-602.04 -329.35)"/><path d="M799,463.61s-2.93.27-4.73,5.66.26,5.71.26,5.66c.15-5.18,4.47-11.32,4.47-11.32" transform="translate(-602.04 -329.35)"/><path d="M765.52,460.84s-4.82.16-4.88-7.48c2-8.91,7.86-7.36,7.86-7.36-7.65,5.07-3,14.84-3,14.84" transform="translate(-602.04 -329.35)"/><path d="M797.46,460.09s-2.31-.11-1.44-6.3c2.11-6.88,4.52-5.87,4.57-5.92-6,9.5-3.13,12.22-3.13,12.22" transform="translate(-602.04 -329.35)"/><path d="M802.44,463.88c0,.05-1.54.16-.31-5.39,1.54-5.71,3.49-5.71,3.49-5.71s-4,9.23-3.18,11.1" transform="translate(-602.04 -329.35)"/><path d="M754.62,478.3c.07.07-5.58-1.61-9.47,5.88-1.62,5.36,2.41,6.75,2.41,6.75s-3.25-9,7.06-12.63" transform="translate(-602.04 -329.35)"/><path d="M768.32,483.51s-3.35-.62-6.81,3.35a10,10,0,0,0-2,3.78c-.77,4.66,2.9,4.55,3,4.55-4-7.64,5.86-11.68,5.86-11.68" transform="translate(-602.04 -329.35)"/><path d="M803.11,466.88s-1.59.11-3.56,4.89c-1.95,5-.71,5.21-.71,5.21Z" transform="translate(-602.04 -329.35)"/><path d="M792.27,489.28s-.63-.7-3.95,3.41c-3.36,4.52-2.27,5-2.3,5,1.31-3.08,6.25-8.44,6.25-8.44" transform="translate(-602.04 -329.35)"/><path d="M787.26,488.8s-1.74-.62-5.66,4.08c-3.25,4.81-1.25,5.38-1.29,5.35.32-5.22,7-9.43,7-9.43" transform="translate(-602.04 -329.35)"/><path d="M779.49,487s-3.15-.92-7.25,4.85c-2.61,4.85,0,5.47,0,5.43A12.88,12.88,0,0,1,779.49,487" transform="translate(-602.04 -329.35)"/><path d="M783.16,499.5s-1.13-.54-4.73,3.18c-3.51,3.92-2.67,4.58-2.67,4.58s.15.29.71.12c.33-4.46,6.69-7.88,6.69-7.88" transform="translate(-602.04 -329.35)"/><path d="M776.38,499.55s-2.1-.88-6.81,4.06c-3.15,4.09-1.06,4.48-1,4.5,1.43-5.72,7.84-8.56,7.84-8.56" transform="translate(-602.04 -329.35)"/><path d="M767,498.2s-2.52-1.35-7.51,3.43c-3.86,4.53-1,5.85-1,5.8.63-6.59,8.54-9.23,8.54-9.23" transform="translate(-602.04 -329.35)"/><path d="M754.6,495.34s-3.06-1.37-7.58,2c-5.82,5.68-1.09,8-1.11,8-.26-8,8.69-10,8.69-10" transform="translate(-602.04 -329.35)"/><path d="M740.66,491.15s-5.07-3.69-10.74,2c-4.12,5.17.52,7.89.59,7.93-.47-11.55,10.15-10,10.15-10" transform="translate(-602.04 -329.35)"/><path d="M772,509.18a14.66,14.66,0,0,0-3.32,1.69c-2.13,1.45-4.46,3.71-4.34,4.77s1.66.18,1.69.18c-2.65-1.43,6-6.64,6-6.64" transform="translate(-602.04 -329.35)"/><path d="M756.81,517s-2.19.33-1.91-1.25c1.2-4.3,8.37-6.28,8.37-6.28s-9.36,4.55-6.46,7.53" transform="translate(-602.04 -329.35)"/><path d="M753.35,508.52s-3-1.18-8,2.42c-5.37,5.07,0,5.73,0,5.73-1.7-7,8-8.15,8-8.15" transform="translate(-602.04 -329.35)"/><path d="M737.74,505.43a10.9,10.9,0,0,0-3.11.33c-2.48.65-5.61,2.28-6.11,5.62.18,3.34,4.45,3.34,4.45,3.34-6.29-4.7,4.77-9.29,4.77-9.29" transform="translate(-602.04 -329.35)"/><path d="M719.72,500.29a9.12,9.12,0,0,0-2.89.48c-2.09.71-4.53,2.32-4.84,5.1,0,3.75,4.17,4.59,4.13,4.59-6-6.94,3.6-10.17,3.6-10.17" transform="translate(-602.04 -329.35)"/><path d="M759.07,518.1a30.17,30.17,0,0,0-3.53,1.76c-2,1.18-3.7,2.64-3.39,3.38s1.66.22,1.69.22c-2.72-1,5.23-5.36,5.23-5.36" transform="translate(-602.04 -329.35)"/><path d="M738.13,517.15a10.92,10.92,0,0,0-7.56,1.94c-4.35,3.49-.32,4.63-.32,4.59-.53-5.8,7.88-6.53,7.88-6.53" transform="translate(-602.04 -329.35)"/><path d="M749.15,518.32s-7.67,2.17-7.74,5.29c.32.88,1.66.92,1.66.88-3.07-1.58,6.08-6.17,6.08-6.17" transform="translate(-602.04 -329.35)"/><path d="M745.65,525.59s-5.4,1.87-5.93,3.49c-.18.59,1.44.55,1.41.51-2.9-1.14,4.52-4,4.52-4" transform="translate(-602.04 -329.35)"/><path d="M722.51,514.06a11.71,11.71,0,0,0-3.85.11c-2.62.58-5.19,2.13-5.26,4.41.32,2.2,2.86,2.72,2.86,2.68-5.82-6,6.25-7.2,6.25-7.2" transform="translate(-602.04 -329.35)"/><path d="M705.24,508.81a11.78,11.78,0,0,0-4.59.26c-2,.59-3.78,2.17-3.74,3.56a4.63,4.63,0,0,0,2.89,4c-5.65-7.57,5.44-7.79,5.44-7.79" transform="translate(-602.04 -329.35)"/><path d="M733.71,525.74a18.13,18.13,0,0,0-3.14,1.14c-1.52.73-2.82,1.77-2.44,2.42.64,1.28,3.39.77,3.39.77-5.23-1.32,2.19-4.33,2.19-4.33" transform="translate(-602.04 -329.35)"/><path d="M727.67,533.41s-.28-.84,2.09-1.54a18.21,18.21,0,0,1,4.23-1s-5.79,1.65-6.32,2.57" transform="translate(-602.04 -329.35)"/><path d="M721.88,523.83s-6.85.33-7.24,3.63c0,1.51,2.82,1.73,2.86,1.66-5.4-2.91,4.38-5.29,4.38-5.29" transform="translate(-602.04 -329.35)"/><path d="M717.57,533.89s-1.91,0-2.15-.92c.1-1.76,6.32-2.39,6.32-2.39s-7.81,1.8-4.17,3.31" transform="translate(-602.04 -329.35)"/><path d="M708.88,520.85a14.8,14.8,0,0,0-4.94-.36c-2.42.34-4.44,1.74-4.45,2.86,0,2.17,3.53,3,3.53,3-6.57-5.69,5.86-5.51,5.86-5.51" transform="translate(-602.04 -329.35)"/><path d="M710.33,528.93a19.06,19.06,0,0,0-4.66-.22c-2.22.28-3.78,1.21-3.78,1.91,0,1.32,3.25,1.8,3.25,1.87-6.22-3.67,5.19-3.56,5.19-3.56" transform="translate(-602.04 -329.35)"/><path d="M709.48,533.89s-4.87,0-5.61,1.1.67,1.21.7,1.21c-1.55-2,4.91-2.31,4.91-2.31" transform="translate(-602.04 -329.35)"/><path d="M691.61,515.24a11.45,11.45,0,0,0-3.3-.49c-2.17,0-4.6,1-4.71,2.64-.18,3,4,4.31,4,4.26-7.72-7.88,4-6.41,4-6.41" transform="translate(-602.04 -329.35)"/><path d="M695.94,525.57a14.61,14.61,0,0,0-4.05-.89c-2.23-.12-4.66.42-4.66,1.52-.05,1.91,3.3,2.89,3.3,2.89-6.36-5.14,5.41-3.52,5.41-3.52" transform="translate(-602.04 -329.35)"/><path d="M697.73,531.69a21.13,21.13,0,0,0-3.76-.4c-1.81,0-3.42.47-3.35,1,.14,1,3.35,1.77,3.35,1.77-6.08-2.94,3.76-2.35,3.76-2.35" transform="translate(-602.04 -329.35)"/><path d="M669.34,513.33s-2.59-1.86-1.84-4.41c.28-.94,2.26-1.73,3.77-1.66A12.4,12.4,0,0,1,676.4,509s-11.4-3.57-7.06,4.36" transform="translate(-602.04 -329.35)"/><path d="M681.11,520.33a16.27,16.27,0,0,0-5-1.62c-1.69-.18-3.59.39-3.81,1.18-.57,2,3.81,4.11,3.76,4.11-7.72-7.78,5.09-3.67,5.09-3.67" transform="translate(-602.04 -329.35)"/><path d="M683.32,527.52a16.72,16.72,0,0,0-3.34-.73c-1.67-.16-3.28.12-3.2.83.14,1.42,3.43,2.6,3.34,2.55-6.4-4.7,3.2-2.65,3.2-2.65" transform="translate(-602.04 -329.35)"/><path d="M686.15,532.57s-4.57-1-5-.1,4.28,3.23,4.28,3.13c-7.25-4.31.71-3,.71-3" transform="translate(-602.04 -329.35)"/><path d="M674,528.36s-4.85-1.82-5.7-1c-.57,1,4.33,3.57,4.28,3.67-8.85-5.53,1.42-2.64,1.42-2.64" transform="translate(-602.04 -329.35)"/><path d="M670.09,522.24a18.91,18.91,0,0,0-3.25-1.33c-1.67-.47-3.44-.56-3.72.1-.57,1.32,3.39,3.53,3.44,3.58-7-5.73,3.53-2.35,3.53-2.35" transform="translate(-602.04 -329.35)"/><path d="M661.9,523s-4.53-2.94-6-2.1.14,2.39.14,2.39c-1.08-4.25,5.89-.29,5.89-.29" transform="translate(-602.04 -329.35)"/><path d="M665.24,513a15.63,15.63,0,0,0-4-1.9c-1.73-.42-3.38-.09-3.67.78-.62,1.81,2.44,4.26,2.44,4.21-5.6-7.2,5.28-3.09,5.28-3.09" transform="translate(-602.04 -329.35)"/><path d="M649.6,503.64s-4.8-3.14-5.69-.89c-.38,2.74,3.72,5.88,3.72,5.78-7.16-9.79,2-4.89,2-4.89" transform="translate(-602.04 -329.35)"/><path d="M643.43,506.62s-4.66-3.87-5.41-2.59c-.57,1,2,3.76,1.93,3.76-4.29-6.41,3.48-1.17,3.48-1.17" transform="translate(-602.04 -329.35)"/><path d="M644.24,513.87c-.43-.2-.1-.54,0-.64,1.55-.83,7,3.87,7,3.87s-5.42-3.67-7-3.23" transform="translate(-602.04 -329.35)"/><path d="M656.24,515.19a17.68,17.68,0,0,0-3.06-1.81c-1.58-.68-3.19-1-3.29-.2-.19,1.52,2.49,3.67,2.54,3.67-5.65-6.66,3.81-1.66,3.81-1.66" transform="translate(-602.04 -329.35)"/><path d="M637.64,495.07s-4.1-4.51-5.79-2.4c-.52,2.59,3.2,6.27,3.16,6.31-6.5-11.21,2.63-3.91,2.63-3.91" transform="translate(-602.04 -329.35)"/><path d="M632.51,497.86s-3.34-3.77-4.62-3.38,2.27,4.9,2.22,4.85c-4.57-8.28,2.4-1.47,2.4-1.47" transform="translate(-602.04 -329.35)"/><path d="M623.84,488c0,.05-3.2-5.78-1.5-6s4,3.13,4,3.13-6.31-7.44-2.5,2.89" transform="translate(-602.04 -329.35)"/><path d="M617.51,475.44s-2.11-3.85-3.16-3.23c-1,.38,1.4,5.63,1.38,5.62-3.16-9.63,1.78-2.39,1.78-2.39" transform="translate(-602.04 -329.35)"/><path d="M613.62,462s-1.3-3.65-3-4.19c-1.6,1,.4,6.5.4,6.49-1-10.64,2.6-2.3,2.6-2.3" transform="translate(-602.04 -329.35)"/><path d="M616.25,404.38l4.06,28.44H613l-.38-5.11h-2.54l-.43,5.11h-7.36L606,404.38Zm-3.77,18.28q-.56-4.83-1.09-11.94c-.72,5.44-1.18,9.43-1.36,11.94Z" transform="translate(-602.04 -329.35)"/><polygon points="26.59 75.03 26.59 97.78 30.92 97.78 30.92 103.47 19.48 103.47 19.48 75.03 26.59 75.03"/><path d="M634.69,404.38h7.17a16,16,0,0,1,4.46.47,4.91,4.91,0,0,1,2.35,1.37,4.77,4.77,0,0,1,1.07,2.17,20.6,20.6,0,0,1,.28,3.94v2.48a10.68,10.68,0,0,1-.54,4,3.82,3.82,0,0,1-2,1.92,9.16,9.16,0,0,1-3.78.66H641.8v11.46h-7.11Zm7.11,4.86v7.24l.53,0a1.63,1.63,0,0,0,1.36-.5,3.85,3.85,0,0,0,.38-2.08v-2.34a2.85,2.85,0,0,0-.44-1.9,2.69,2.69,0,0,0-1.83-.44" transform="translate(-602.04 -329.35)"/><path d="M667.14,413h-6.61v-2.1a4.27,4.27,0,0,0-.25-1.88.93.93,0,0,0-.85-.41,1.05,1.05,0,0,0-1,.55,3.24,3.24,0,0,0-.33,1.65,4.86,4.86,0,0,0,.37,2.15,5.44,5.44,0,0,0,2,1.73c3.17,2,5.16,3.56,6,4.82s1.23,3.27,1.23,6.06a11.1,11.1,0,0,1-.68,4.47,5.42,5.42,0,0,1-2.65,2.42,10.13,10.13,0,0,1-4.56,1,9.89,9.89,0,0,1-4.88-1.12,5.37,5.37,0,0,1-2.64-2.86,15.15,15.15,0,0,1-.63-4.94v-1.86h6.61v3.46a4.68,4.68,0,0,0,.28,2.06,1.06,1.06,0,0,0,1,.45,1.13,1.13,0,0,0,1-.58,3.43,3.43,0,0,0,.35-1.72c0-1.67-.22-2.77-.66-3.28a20.86,20.86,0,0,0-3.33-2.59,31.13,31.13,0,0,1-3.51-2.65A6.07,6.07,0,0,1,652,415.5a10.41,10.41,0,0,1-.57-3.73,10.78,10.78,0,0,1,.8-4.78,5.53,5.53,0,0,1,2.6-2.36,9.94,9.94,0,0,1,4.32-.85,10.93,10.93,0,0,1,4.73.93,5,5,0,0,1,2.58,2.35,12.65,12.65,0,0,1,.64,4.8Z" transform="translate(-602.04 -329.35)"/><polygon points="88.35 75.03 88.35 80.72 84.13 80.72 84.13 103.47 77.01 103.47 77.01 80.72 72.8 80.72 72.8 75.03 88.35 75.03"/><path d="M708.27,421q0,4.29-.19,6.07a7,7,0,0,1-1.22,3.26,6.64,6.64,0,0,1-2.76,2.27,10.78,10.78,0,0,1-8,0,6.58,6.58,0,0,1-2.82-2.24,6.84,6.84,0,0,1-1.26-3.25,60.27,60.27,0,0,1-.21-6.15v-4.87c0-2.85.07-4.88.2-6.07a7,7,0,0,1,1.21-3.25,6.66,6.66,0,0,1,2.77-2.27,9.66,9.66,0,0,1,4-.79,9.94,9.94,0,0,1,4,.75,6.41,6.41,0,0,1,2.81,2.24,6.77,6.77,0,0,1,1.27,3.25,61,61,0,0,1,.2,6.14Zm-7.11-9.35a9.1,9.1,0,0,0-.21-2.53.84.84,0,0,0-.87-.56,1,1,0,0,0-.86.45,6.76,6.76,0,0,0-.29,2.64V425a13.54,13.54,0,0,0,.19,3,.85.85,0,0,0,.91.58.88.88,0,0,0,.93-.67,14.93,14.93,0,0,0,.2-3.17Z" transform="translate(-602.04 -329.35)"/><path d="M727.1,404.38v19a35.48,35.48,0,0,1-.2,4.54,6.39,6.39,0,0,1-1.2,2.68,6.24,6.24,0,0,1-2.63,2.09,9.46,9.46,0,0,1-3.84.72,10.49,10.49,0,0,1-4.33-.85,6.55,6.55,0,0,1-2.81-2.19,6.36,6.36,0,0,1-1.1-2.86q-.16-1.5-.16-6.31V404.38h7.11V425.7a8.61,8.61,0,0,0,.2,2.38.75.75,0,0,0,.78.52.82.82,0,0,0,.87-.57,10.88,10.88,0,0,0,.2-2.69v-21Z" transform="translate(-602.04 -329.35)"/><path d="M729.86,404.38h5a37.12,37.12,0,0,1,6.82.4,4.72,4.72,0,0,1,2.91,2.06,9.7,9.7,0,0,1,1.12,5.3c0,2.22-.26,3.7-.79,4.46a4.07,4.07,0,0,1-3.13,1.37,5.3,5.3,0,0,1,2.84,1.46,4.39,4.39,0,0,1,.91,1.68,29.26,29.26,0,0,1,.17,4.21v7.5h-6.6v-9.45a6.76,6.76,0,0,0-.35-2.83c-.23-.36-.84-.55-1.82-.55v12.83h-7.11Zm7.11,4.86v6.33a3,3,0,0,0,1.68-.35c.32-.22.49-1,.49-2.22v-1.56a2.47,2.47,0,0,0-.47-1.78,2.59,2.59,0,0,0-1.7-.42" transform="translate(-602.04 -329.35)"/><path d="M770.93,414.85h-7.12v-2.59a13.66,13.66,0,0,0-.2-3.05.91.91,0,0,0-1-.62.9.9,0,0,0-.89.53,8.74,8.74,0,0,0-.24,2.7v13.66a8.37,8.37,0,0,0,.24,2.52.92.92,0,0,0,.94.6,1.05,1.05,0,0,0,1.06-.68,8.21,8.21,0,0,0,.28-2.67v-3.38h-1.44v-4.32h8.34v15.27h-4.48l-.65-2a5.13,5.13,0,0,1-1.84,2,5,5,0,0,1-2.61.66,6.95,6.95,0,0,1-5.74-3.15,7.17,7.17,0,0,1-1-2.8,34.15,34.15,0,0,1-.2-4.4v-8.45a29.55,29.55,0,0,1,.42-5.92,6,6,0,0,1,2.42-3.38,8.26,8.26,0,0,1,5.18-1.54,9.35,9.35,0,0,1,5.19,1.33,6.25,6.25,0,0,1,2.69,3.17,17.38,17.38,0,0,1,.63,5.34Z" transform="translate(-602.04 -329.35)"/><path d="M789.94,421q0,4.29-.2,6.07a7,7,0,0,1-1.21,3.26,6.67,6.67,0,0,1-2.77,2.27,9.82,9.82,0,0,1-4,.79,9.94,9.94,0,0,1-4-.75,6.61,6.61,0,0,1-2.81-2.24,7,7,0,0,1-1.27-3.25,61.13,61.13,0,0,1-.2-6.15v-4.87c0-2.85.06-4.88.19-6.07a7,7,0,0,1,1.22-3.25,6.57,6.57,0,0,1,2.76-2.27,9.68,9.68,0,0,1,4.06-.79,9.89,9.89,0,0,1,3.94.75,6.44,6.44,0,0,1,2.82,2.24,6.88,6.88,0,0,1,1.27,3.25q.19,1.75.2,6.14Zm-7.12-9.35a9.1,9.1,0,0,0-.21-2.53.84.84,0,0,0-.87-.56,1,1,0,0,0-.85.45,6.49,6.49,0,0,0-.3,2.64V425a13.29,13.29,0,0,0,.2,3,.84.84,0,0,0,.9.58.88.88,0,0,0,.93-.67,14.25,14.25,0,0,0,.2-3.17Z" transform="translate(-602.04 -329.35)"/><polygon points="197.66 75.03 197.66 97.78 201.99 97.78 201.99 103.47 190.55 103.47 190.55 75.03 197.66 75.03"/><polygon points="203.71 75.03 215.76 75.03 215.76 80.72 210.83 80.72 210.83 86.12 215.22 86.12 215.22 91.53 210.83 91.53 210.83 103.47 203.71 103.47 203.71 75.03"/><g class="cls-2"><path d="M813.64,450.85c0,4.52-4.31,8.18-9.64,8.18H611.69c-5.33,0-9.65-3.66-9.65-8.18v-10c0-4.51,4.32-8.17,9.65-8.17H804c5.33,0,9.64,3.66,9.64,8.17Z" transform="translate(-602.04 -329.35)"/></g><path class="cls-3" d="M653.26,445.77h1.6a11.3,11.3,0,0,1,2.17.13,1.48,1.48,0,0,1,.93.65,3.1,3.1,0,0,1,.36,1.69,2.7,2.7,0,0,1-.26,1.42,1.32,1.32,0,0,1-1,.44,1.57,1.57,0,0,1,.9.46,1.34,1.34,0,0,1,.29.53,8.25,8.25,0,0,1,.06,1.34v2.39h-2.11v-3a2.07,2.07,0,0,0-.11-.9c-.07-.11-.26-.17-.58-.17v4.08h-2.26Zm2.26,1.55v2a1,1,0,0,0,.54-.11c.1-.07.15-.31.15-.71V448a.55.55,0,0,0-.69-.7" transform="translate(-602.04 -329.35)"/><path class="cls-3" d="M663.57,447h-2.24v-1.18h2.24Zm0,7.87h-2.24V447.4h2.24Z" transform="translate(-602.04 -329.35)"/><path class="cls-3" d="M671,449.77h-1.93v-.4a2.1,2.1,0,0,0-.06-.65c0-.1-.13-.14-.28-.14a.3.3,0,0,0-.27.13.63.63,0,0,0-.09.37,2,2,0,0,0,0,.5.71.71,0,0,0,.28.35,6,6,0,0,0,.93.56,3.44,3.44,0,0,1,1.25.9,2.23,2.23,0,0,1,.29,1.24,3.2,3.2,0,0,1-.22,1.36,1.51,1.51,0,0,1-.76.71,2.92,2.92,0,0,1-1.28.25,3.35,3.35,0,0,1-1.41-.27,1.49,1.49,0,0,1-.81-.72,3.32,3.32,0,0,1-.22-1.39v-.36h1.92v.47a2.45,2.45,0,0,0,.08.78.27.27,0,0,0,.28.18.39.39,0,0,0,.33-.12,1,1,0,0,0,.09-.51,1.14,1.14,0,0,0-.12-.66,9.2,9.2,0,0,0-1.26-.8,2.84,2.84,0,0,1-1.17-1,2.57,2.57,0,0,1-.21-1.08,2.89,2.89,0,0,1,.22-1.31,1.59,1.59,0,0,1,.77-.66,3.26,3.26,0,0,1,1.26-.22,3.53,3.53,0,0,1,1.2.18,1.84,1.84,0,0,1,.77.5,1.38,1.38,0,0,1,.32.57,4,4,0,0,1,.06.82Z" transform="translate(-602.04 -329.35)"/><path class="cls-3" d="M676.17,447h-2.23v-1.18h2.23Zm0,7.87h-2.23V447.4h2.23Z" transform="translate(-602.04 -329.35)"/><path class="cls-3" d="M681.37,447.4l0,.68a1.71,1.71,0,0,1,.58-.61,1.44,1.44,0,0,1,.78-.2,1.48,1.48,0,0,1,.92.27,1.25,1.25,0,0,1,.46.69,7.22,7.22,0,0,1,.1,1.39v5.2H682v-5.14a5.06,5.06,0,0,0,0-.93.26.26,0,0,0-.27-.17.26.26,0,0,0-.29.19,5,5,0,0,0-.06,1v5h-2.17V447.4Z" transform="translate(-602.04 -329.35)"/><path class="cls-3" d="M692.05,447.4v5.71a12,12,0,0,1,0,1.5,1.45,1.45,0,0,1-.36.71,1.88,1.88,0,0,1-.87.58,4.28,4.28,0,0,1-1.4.2,3.25,3.25,0,0,1-1.67-.37,1.56,1.56,0,0,1-.65-1.44h2.11c0,.33.12.49.35.49a.33.33,0,0,0,.32-.15,1.46,1.46,0,0,0,.08-.63v-.56a1.87,1.87,0,0,1-.59.4,1.56,1.56,0,0,1-.64.13,1.79,1.79,0,0,1-1-.24,1.32,1.32,0,0,1-.52-.65,3.65,3.65,0,0,1-.14-1.14v-2.69a2.44,2.44,0,0,1,.37-1.52,1.31,1.31,0,0,1,1.11-.46,1.59,1.59,0,0,1,.75.17,1.94,1.94,0,0,1,.6.52l.15-.56Zm-2.17,2a2.1,2.1,0,0,0-.06-.65.24.24,0,0,0-.25-.14.28.28,0,0,0-.27.16,1.75,1.75,0,0,0-.07.63v2.49a2.19,2.19,0,0,0,.06.65c0,.1.12.14.24.14a.26.26,0,0,0,.28-.17,2.71,2.71,0,0,0,.07-.81Z" transform="translate(-602.04 -329.35)"/><path class="cls-3" d="M704.43,449.1h-2.26v-.82a4.5,4.5,0,0,0-.06-1,.29.29,0,0,0-.31-.2.29.29,0,0,0-.29.17,2.9,2.9,0,0,0-.07.86v4.34a2.72,2.72,0,0,0,.07.8.3.3,0,0,0,.31.2.34.34,0,0,0,.33-.22,2.64,2.64,0,0,0,.09-.85v-1.07h-.46V450h2.65v4.86H703l-.21-.65a1.62,1.62,0,0,1-.58.63,1.6,1.6,0,0,1-.83.21,2.12,2.12,0,0,1-1.07-.29,2.09,2.09,0,0,1-.76-.71,2.33,2.33,0,0,1-.32-.89,12.09,12.09,0,0,1-.06-1.4V449a9.43,9.43,0,0,1,.13-1.89,1.92,1.92,0,0,1,.77-1.07,2.63,2.63,0,0,1,1.65-.49,3,3,0,0,1,1.65.42,2,2,0,0,1,.86,1,5.71,5.71,0,0,1,.19,1.7Z" transform="translate(-602.04 -329.35)"/><path class="cls-3" d="M712.36,450v1.81a8.56,8.56,0,0,1-.09,1.47,2.19,2.19,0,0,1-.42.87,1.88,1.88,0,0,1-.81.6,3.1,3.1,0,0,1-1.14.19,4,4,0,0,1-1.23-.16,1.64,1.64,0,0,1-.77-.5,2,2,0,0,1-.4-.8,6.26,6.26,0,0,1-.12-1.42v-1.9a4.93,4.93,0,0,1,.22-1.62,1.79,1.79,0,0,1,.77-.93,2.61,2.61,0,0,1,1.43-.35,3.19,3.19,0,0,1,1.26.22,2,2,0,0,1,.81.59,2.08,2.08,0,0,1,.39.75,4.93,4.93,0,0,1,.1,1.18m-2.17-.56a2.54,2.54,0,0,0-.06-.72.24.24,0,0,0-.25-.15.26.26,0,0,0-.26.15,2.54,2.54,0,0,0-.06.72v3.34a2.48,2.48,0,0,0,.06.69.29.29,0,0,0,.51,0,2,2,0,0,0,.06-.62Z" transform="translate(-602.04 -329.35)"/><rect class="cls-3" x="113.24" y="116.42" width="2.24" height="9.05"/><path class="cls-3" d="M723.27,445.77v1.14a2.56,2.56,0,0,0-.79.07q-.12.06-.12.36v.24h.91v1.17h-.52v6.07h-2.17v-6.07h-.44v-1.17h.44a6.54,6.54,0,0,1,0-1,.84.84,0,0,1,.24-.44,1.28,1.28,0,0,1,.53-.29,4,4,0,0,1,1.07-.1Z" transform="translate(-602.04 -329.35)"/><path class="cls-3" d="M734.89,448.51h-2.1v-.67a1.4,1.4,0,0,0-.08-.6.28.28,0,0,0-.27-.13.34.34,0,0,0-.31.17,1.06,1.06,0,0,0-.1.53,1.68,1.68,0,0,0,.11.68,1.76,1.76,0,0,0,.64.55,6.6,6.6,0,0,1,1.91,1.54,3.6,3.6,0,0,1,.39,1.92,3.44,3.44,0,0,1-.22,1.43,1.73,1.73,0,0,1-.84.77,3.29,3.29,0,0,1-1.45.31,3.12,3.12,0,0,1-1.55-.36,1.71,1.71,0,0,1-.84-.91,4.64,4.64,0,0,1-.2-1.57v-.59h2.1v1.1a1.47,1.47,0,0,0,.09.65.33.33,0,0,0,.31.15.39.39,0,0,0,.34-.19,1.11,1.11,0,0,0,.11-.55,1.73,1.73,0,0,0-.21-1,6.17,6.17,0,0,0-1.06-.82,10,10,0,0,1-1.12-.85,1.93,1.93,0,0,1-.45-.72,3.35,3.35,0,0,1-.18-1.19,3.42,3.42,0,0,1,.25-1.52,1.75,1.75,0,0,1,.83-.75,3.19,3.19,0,0,1,1.37-.27,3.63,3.63,0,0,1,1.51.29,1.6,1.6,0,0,1,.82.75,4.2,4.2,0,0,1,.2,1.53Z" transform="translate(-602.04 -329.35)"/><path class="cls-3" d="M740.22,446.41v1.17h.59v1.17h-.59v4a2.24,2.24,0,0,0,.07.82,1.24,1.24,0,0,0,.61.08v1.2H740a5.31,5.31,0,0,1-1.06-.07,1.12,1.12,0,0,1-.56-.29,1,1,0,0,1-.3-.53,9.7,9.7,0,0,1-.06-1.41v-3.77h-.47v-1.17H738v-1.17Z" transform="translate(-602.04 -329.35)"/><path class="cls-3" d="M745.43,450.27h-2v-.49a3.57,3.57,0,0,1,.19-1.33,1.83,1.83,0,0,1,.77-.83,2.86,2.86,0,0,1,1.49-.35,2.8,2.8,0,0,1,1.66.4,1.58,1.58,0,0,1,.68,1,17,17,0,0,1,.11,2.42v3.73h-2.11v-.66a1.51,1.51,0,0,1-.52.59,1.32,1.32,0,0,1-.75.2,1.76,1.76,0,0,1-1-.33c-.32-.22-.48-.71-.48-1.46v-.61a1.82,1.82,0,0,1,.25-1.13,3.46,3.46,0,0,1,1.26-.7,3.71,3.71,0,0,0,1.14-.59,1.62,1.62,0,0,0,.08-.62,2,2,0,0,0-.09-.75.27.27,0,0,0-.27-.18c-.15,0-.24.05-.28.15a3.56,3.56,0,0,0-.05.77Zm.69,1a1.73,1.73,0,0,0-.61.67,2.91,2.91,0,0,0-.08.77,2.29,2.29,0,0,0,.07.74.29.29,0,0,0,.29.17.27.27,0,0,0,.26-.13,1.89,1.89,0,0,0,.07-.69Z" transform="translate(-602.04 -329.35)"/><path class="cls-3" d="M753.41,447.4l-.08,1a1.61,1.61,0,0,1,1.37-1.11v2.61a1.81,1.81,0,0,0-.88.16.7.7,0,0,0-.34.47,7.7,7.7,0,0,0-.07,1.38v2.93h-2.17V447.4Z" transform="translate(-602.04 -329.35)"/><path class="cls-3" d="M761.82,449.77H759.9v-.4a2.1,2.1,0,0,0-.06-.65c0-.1-.13-.14-.28-.14a.31.31,0,0,0-.28.13.63.63,0,0,0-.09.37,1.91,1.91,0,0,0,0,.5.74.74,0,0,0,.27.35,6.24,6.24,0,0,0,.94.56,3.48,3.48,0,0,1,1.24.9,2.14,2.14,0,0,1,.3,1.24,3.17,3.17,0,0,1-.23,1.36,1.49,1.49,0,0,1-.75.71,3,3,0,0,1-1.28.25,3.39,3.39,0,0,1-1.42-.27,1.57,1.57,0,0,1-.81-.72,3.49,3.49,0,0,1-.22-1.39v-.36h1.93v.47a2.56,2.56,0,0,0,.07.78.28.28,0,0,0,.29.18.38.38,0,0,0,.32-.12A1,1,0,0,0,760,453a1.14,1.14,0,0,0-.12-.66,9.2,9.2,0,0,0-1.26-.8,2.84,2.84,0,0,1-1.17-1,2.57,2.57,0,0,1-.21-1.08,2.87,2.87,0,0,1,.23-1.31,1.52,1.52,0,0,1,.76-.66,3.26,3.26,0,0,1,1.26-.22,3.59,3.59,0,0,1,1.21.18,1.87,1.87,0,0,1,.76.5,1.19,1.19,0,0,1,.32.57,4,4,0,0,1,.06.82Z" transform="translate(-602.04 -329.35)"/><path d="M614.59,394.39s22.16-29.15,23.72-29.36,9.16-7.2,9.16-7.2,9.28-27.2,15.51-12.1,9.82,20,9.82,20,.41,8.46,17.88-10.06c3.43-2.6,20.06-20.24,23.83-25.93,4.91-1.54,5.81,1.64,6.7,2.33s11,10.4,11,10.4L738.5,347s5.22,1,7.93-.11,7.9-2,12,2,19.63,14.73,23.64,15.31,16.47,28.27,16.47,28.27-9.6-10.94-11.4-12-12.92-4.92-16-2c-4-.58-9.38-4.37-14.73-23.78-3.81-3.68-2.07-4.19-9.41-3.74s-6,1.79-6.46,1.44-2.91-.81-3.34-1.46-15.25-12.56-15.25-12.56-6.8-10.77-8.34,4.12a26.43,26.43,0,0,0,1.65,18.87c2.6,3.28,7.56,8.6,7.65,9.55s-8.85-2.77-10.16-4.1-5.14,0-5.74-.38-13,2.26-14.54-6.27c-1.8,1.43-12.35,8.55-12.35,8.55s-6.77,1.42-.7,14c.93,2.55,1.7,5.42-2.09.48s-4.73-6.64-5.52-1.3-2.32,20.69-3.66,8.42a119.69,119.69,0,0,1-1.37-12c0-2.34,1-10.95-1.57-18.16-.88-2.86-4.95-18.13-8.27-5.92,0,0-1.35,4.82.67,13.86,0,2.11.08,6.33-4,.91s-12.26.12-12.26.12a64.84,64.84,0,0,0-14.91,14.94c-6.89,9.63-9.69,13.43-10.4,13.62s-3,2.84-3,2.84Z" transform="translate(-602.04 -329.35)"/></svg>