<svg xmlns="http://www.w3.org/2000/svg" viewBox="0 0 266.09 156.25" class="navigation-tours__logo"><g fill="currentColor" fill-rule="evenodd"><g><g opacity="0.15"><path d="M84.17,32a4.38,4.38,0,0,0-.46-2c-.58-1.18-1.07-2.13-1.25-2.42a.14.14,0,0,0-.2-.05l-.28.12a.3.3,0,0,0-.17.29c.07.59.24,2.2.3,2.62a4.38,4.38,0,0,0,.44,1.74c.51,1.11.81,1.74,1,2a.23.23,0,0,0,.29.11l.24-.11a.25.25,0,0,0,.15-.23C84.18,33.68,84.19,32.32,84.17,32Z"/><path d="M79.54,27.7a3.94,3.94,0,0,0-.94-1.81,11.48,11.48,0,0,0-1.49-1.53.25.25,0,0,0-.36,0,4.1,4.1,0,0,0-.57.67,1.16,1.16,0,0,0-.21,1s.37,1.57.51,2.09c.31,1.24.41,1.36.77,1.78.6.69,1,1.18,1.29,1.46a.38.38,0,0,0,.6,0l.21-.18A1.13,1.13,0,0,0,79.83,30,21.79,21.79,0,0,0,79.54,27.7Z"/><path d="M73.11,25.84a1.67,1.67,0,0,0-.77-1c-.38-.27-2-1.15-2.22-1.24a.35.35,0,0,0-.43.1c-.11.15-.72,1-.85,1.2-.39.61-.35.75-.2,1.2,0,0,.8,2,1,2.55.42,1,.56,1.07,1,1.33l1.46.87.3.16a.41.41,0,0,0,.51-.1l.12-.15c.22-.26.5-.65.63-.83a1.33,1.33,0,0,0,.24-1.4C73.5,27.12,73.28,26.33,73.11,25.84Z"/><path d="M66,27.39c-.45-.95-.66-1-1.16-1.19s-2.44-.51-2.49-.51a.36.36,0,0,0-.38.19c0,.05-.71,1.57-.85,1.95a1.19,1.19,0,0,0,0,1.19c.16.33,1.12,1.92,1.42,2.39.56.85.74.89,1.19,1l1.8.47a.67.67,0,0,0,.73-.34c.14-.27.51-1,.64-1.33a1.68,1.68,0,0,0,0-1.61C66.47,28.58,66.18,27.87,66,27.39Z"/><path d="M47.39,25.68a3.18,3.18,0,0,0-.4,0c-3.34.72-3.34.72-3.58,1.5-.75,3.07-.75,3.07-.28,3.58l.1.09c2.66,2.29,2.66,2.29,3.5,2.13,2.74-.62,2.74-.62,3-.83a1,1,0,0,0,.28-.51c.76-2.95.76-2.95.22-3.61C48.3,26,48,25.68,47.39,25.68Z"/><path d="M55.48,19.94H54.4c-2.24,0-2.27.06-2.54.61-1.09,2.6-1.09,2.6-.7,3.15l.08.11c2.32,2.63,2.32,2.63,3.16,2.65,2.73,0,2.74,0,3-.15a.71.71,0,0,0,.3-.37c1.11-2.5,1.11-2.5.68-3.21C56.4,20,56.4,20,55.48,19.94Z"/><path d="M80.84,23.53c-.16-.56-.58-1.71-.69-2a4.33,4.33,0,0,0-1-1.61c-.68-.81-1.69-1.85-2.07-2.23a.34.34,0,0,0-.36-.07l-.15.08a.4.4,0,0,0-.2.49c0,.07,0,.14.07.18.22.56.77,2,.94,2.33a3.4,3.4,0,0,0,.85,1.27C79.47,23.26,80,23.78,80.16,24a.26.26,0,0,0,.28.05l.21-.08C80.85,23.87,80.91,23.78,80.84,23.53Z"/><path d="M64.27,16.81c-3.15-.81-3.15-.81-3.48-.4-1.27,1.95-1.27,2-1,2.49l.07.11c1.95,2.9,1.95,2.9,2.77,3.12,2.61.66,2.62.65,2.85.6a.48.48,0,0,0,.27-.21c1.3-1.85,1.3-1.85,1-2.54C65.18,17.13,65.18,17.13,64.27,16.81Z"/><path d="M73.73,18.18a2.67,2.67,0,0,0-1.14-1.38,24.18,24.18,0,0,0-2.29-1.38l-.25-.11a.46.46,0,0,0-.51.09l-.1.09L69,16a1.11,1.11,0,0,0-.22,1.28c.31.63.74,1.5.89,1.78.59,1.08.75,1.2,1.29,1.51,1.25.73,2.18,1.22,2.18,1.22l.14.07a.58.58,0,0,0,.58-.07l.13-.11s.3-.26.44-.4a.75.75,0,0,0,.24-1C74.22,19.27,73.94,18.62,73.73,18.18Z"/></g><g opacity="0.25"><path d="M39.11,25.15c-1.79-1.46-2.29-1.86-2.78-1.86a2.25,2.25,0,0,0-.64.14c-3.48,1.38-3.48,1.38-3.73,2.29-.72,3.31-.72,3.31-.26,3.75h0a.39.39,0,0,0,.1.08c2.7,1.91,2.7,1.91,3.57,1.58,2.92-1.23,2.93-1.23,3.21-1.53a1.46,1.46,0,0,0,.33-.67C39.68,25.69,39.68,25.69,39.11,25.15Z"/><path d="M25.52,45.17c-1.76-1-2.4-1.31-2.81-1.31a1.07,1.07,0,0,0-.64.3c-2.6,2.34-2.6,2.34-2.54,3.43.42,3.81.42,3.81,1,4.21l.11.06c2.91,1.33,2.91,1.33,3.52.81,2.15-2.07,2.15-2.07,2.31-2.48a1.79,1.79,0,0,0,.09-.84C26.23,45.61,26.23,45.61,25.52,45.17Z"/><path d="M45.05,15.88c-.14,0-.3,0-.49,0-3.64.7-3.64.7-4,1.44-1.08,2.8-1.08,2.8-.68,3.24l.08.08c2.54,2.16,2.54,2.16,3.48,2,3.07-.64,3.07-.65,3.38-.87a1.14,1.14,0,0,0,.39-.52c1.11-2.72,1.11-2.72.62-3.28C46,16.21,45.66,15.88,45.05,15.88Z"/><path d="M31.48,34.38c-1.79-1.2-2.37-1.59-2.81-1.59A1.57,1.57,0,0,0,28,33C24.87,35,24.87,35,24.75,36c-.22,3.66-.22,3.66.3,4.08l.1.06C28,41.76,28,41.76,28.76,41.3c2.62-1.71,2.62-1.71,2.85-2.08a1.62,1.62,0,0,0,.23-.77C32.12,34.89,32.12,34.89,31.48,34.38Z"/><path d="M54,11c-3.64-.09-3.64-.1-4,.43-1.25,2.13-1.25,2.13-.94,2.53l.08.09c2.35,2.35,2.35,2.35,3.31,2.38,3.1,0,3.1,0,3.42-.1a.8.8,0,0,0,.38-.34c1.3-2,1.3-2,.9-2.56C55.09,11.13,55.09,11.13,54,11Z"/><path d="M23.79,70.69c-1.9-3-1.9-3-2.72-3.27-1-.35-2.06-.64-2.58-.78a.46.46,0,0,0-.53.23,8.42,8.42,0,0,0-.63,1.71.94.94,0,0,0,.07.81c1.93,2.89,1.93,2.89,2.68,3.21l2.79.69a.36.36,0,0,0,.38-.16,7.19,7.19,0,0,0,.82-1.79s0-.06,0-.09A1.75,1.75,0,0,0,23.79,70.69Z"/><path d="M18.9,63,19,63c2.93,1.05,2.93,1.05,3.32.6,1.5-1.91,1.5-1.91,1.55-2.26a1.59,1.59,0,0,0-.11-.75c-1.14-3.49-1.14-3.49-1.9-3.86a11.48,11.48,0,0,0-2.8-1.05c-.23,0-.34.11-.51.29-1.83,2.26-1.83,2.26-1.55,3.21C18.22,62.63,18.22,62.63,18.9,63Z"/><path d="M74.33,14.07c-.33-.54-1.18-1.62-1.41-1.91a5.24,5.24,0,0,0-1.23-1.11c-.34-.25-1.79-1.18-2.52-1.65L69,9.26a.44.44,0,0,0-.43,0l-.37.17a.27.27,0,0,0-.1.4c.36.49,1.13,1.53,1.35,1.81a4.19,4.19,0,0,0,1.44,1.28c1.69,1,2.42,1.48,2.73,1.65a.43.43,0,0,0,.41,0,2.21,2.21,0,0,0,.27-.12C74.41,14.36,74.44,14.26,74.33,14.07Z"/><path d="M66.43,12.06c-.66-.83-1.08-1.38-1.4-1.74a2.65,2.65,0,0,0-1.52-1c-.68-.22-2.3-.66-2.82-.78l-.46-.1a.61.61,0,0,0-.56.15c-.16.15-.36.34-.47.46s-.29.32-.42.49a.6.6,0,0,0,0,.77l.13.16c.31.37.9,1.07,1.14,1.33.9,1,1.1,1.06,1.8,1.25l2.58.67a1.81,1.81,0,0,0,.73.09.46.46,0,0,0,.33-.13c.45-.42.84-.78,1-1a.35.35,0,0,0,0-.41Z"/></g><g opacity="0.4"><path d="M36.41,15.56C34.05,13.9,34.05,13.9,33,14.2c-3.62,1.35-3.62,1.35-4,2.16-1,2.9-1,2.9-.68,3.24h0l.07,0C31,21.35,31,21.35,31.9,21,35,19.8,35,19.8,35.38,19.49a1.61,1.61,0,0,0,.43-.64C36.89,16,36.89,16,36.41,15.56Z"/><path d="M46,9.38c-2.34-1.72-2.34-1.72-3.46-1.6-3.81.65-3.81.65-4.19,1.26s-.58,1.06-.77,1.44c-.08.15-.14.31-.2.43a.54.54,0,0,0,.18.62l.25.19c.45.34,1.06.79,1.28.94,1,.66,1.21.63,2,.5,3.31-.61,3.32-.62,3.68-.82a1.14,1.14,0,0,0,.45-.45,19.49,19.49,0,0,0,1.09-2,.31.31,0,0,0-.08-.33Z"/><path d="M54.17,5a3.06,3.06,0,0,0-1.83-.65s-2.55-.17-3.11-.17c-.82,0-.89.11-1.11.35s-.53.65-.73.91l-.1.13a.43.43,0,0,0,.08.6l0,0c.52.39,1.4,1.07,1.69,1.26A2.57,2.57,0,0,0,50.84,8l2.72.08a2.86,2.86,0,0,0,1-.07A.77.77,0,0,0,55,7.75c.34-.37.65-.74.87-1a.42.42,0,0,0-.08-.61C55.3,5.78,54.45,5.15,54.17,5Z"/><path d="M27.7,24.22c-2.38-1.6-2.38-1.59-3.25-1.18-3.26,1.89-3.26,1.89-3.51,2.88-.68,3.45-.68,3.46-.27,3.84l.07.06C23.22,31.43,23.23,31.44,24,31c2.83-1.7,2.83-1.7,3.12-2.09a2.08,2.08,0,0,0,.35-.79C28.23,24.66,28.23,24.66,27.7,24.22Z"/><path d="M11.63,53.56l.09.06c2.43,1.44,2.43,1.44,2.83,1,1.7-2.07,1.7-2.07,1.82-2.51a2.56,2.56,0,0,0,0-.92c-.49-4-.49-4-1.12-4.48-2.36-1.43-2.36-1.44-2.84-1-2,2.4-2,2.4-1.92,3.51C11.09,53.1,11.09,53.1,11.63,53.56Z"/><path d="M16.43,72.68c-2.14-3.16-2.23-3.28-2.95-3.7s-1.57-.89-2-1.09c-.23-.11-.34,0-.4.21-.32,1-.26,1.07.19,1.79,2.08,3,2.08,3,2.79,3.46l1,.55,1.05.57c.23.11.38,0,.45-.2.2-.67.24-.87.18-1A1.52,1.52,0,0,0,16.43,72.68Z"/><path d="M11.45,64.4l1.21.7c.42.23.81.41,1.06.53a.35.35,0,0,0,.44-.16c.13-.22.29-.52.36-.64.57-1,.57-1,.57-1.33a2.21,2.21,0,0,0-.18-.81c-1.34-3.65-1.34-3.65-2-4.09a18.28,18.28,0,0,0-1.6-.9l-.57-.27a.33.33,0,0,0-.4.12l-.46.75c-.13.22-.23.41-.31.56a1.52,1.52,0,0,0-.07,1.59C10.82,63.92,10.82,63.93,11.45,64.4Z"/><path d="M64.38,6a8.77,8.77,0,0,0-2.83-1.71c-1-.4-2.62-.85-3.11-1l-.29-.07a.64.64,0,0,0-.45.07c-.05,0-.22.11-.37.21s-.2.2,0,.35c.44.35,1.35,1,1.55,1.16A4.44,4.44,0,0,0,60.74,6c2.18.65,3.18.9,3.61,1,.21,0,.27,0,.31-.23a.83.83,0,0,0,0-.24C64.69,6.26,64.62,6.21,64.38,6Z"/><path d="M20.45,34.79c-2.38-1.52-2.42-1.56-3.11-1.08-2.75,2.27-2.7,2.31-2.8,3.43-.16,3.86-.16,3.86.31,4.29l.08.06C17.39,43,17.39,43,18,42.5c2.37-2.07,2.37-2.07,2.59-2.51a2.54,2.54,0,0,0,.22-.92C21,35.24,21,35.24,20.45,34.79Z"/></g><g opacity="0.6"><path d="M17.14,24.92c-1.77-1.13-1.78-1.13-2.42-.66C12,26.47,12,26.47,11.79,27.48c-.71,3.43-.71,3.44-.43,3.75,1.81,1.33,1.81,1.33,2.43.86,2.44-2,2.44-2,2.7-2.45a2.54,2.54,0,0,0,.33-.88C17.53,25.24,17.53,25.24,17.14,24.92Z"/><path d="M7.83,63.51C6.47,60,6.46,60,6,59.53s-.88-.86-1.18-1.11a.12.12,0,0,0-.2.06,2.16,2.16,0,0,0,0,1.91c1.24,3.14,1.26,3.19,1.72,3.73a10.55,10.55,0,0,0,1.24,1.32c.15.12.23.09.29-.08.27-.78.24-.82.21-1.07A3.46,3.46,0,0,0,7.83,63.51Z"/><path d="M53.39,1.59c-.4-.19-1.17-.43-1.4-.51A7.39,7.39,0,0,0,50.23.7C49.67.65,47.61.52,47,.49c-.84,0-.9,0-1.14.15-.43.25-.46.29,0,.47,1.92.72,2,.76,3,.8L52,2.06c.36,0,.67,0,.87,0a1.34,1.34,0,0,0,.57-.2C53.69,1.73,53.67,1.72,53.39,1.59Z"/><path d="M5.23,54.51l1.24,1.13a.46.46,0,0,0,.71-.1c.24-.39.53-.88.62-1a2.74,2.74,0,0,0,.26-1.76c-.21-1.59-.36-2.55-.48-3.16-.18-.91-.33-1-.62-1.32s-.84-.71-1.15-1a.45.45,0,0,0-.67.11l-.1.16c-.25.45-.44.78-.57,1a2.23,2.23,0,0,0-.25,1.68c.27,1.64.41,2.55.53,3.1A2.06,2.06,0,0,0,5.23,54.51Z"/><path d="M10.85,36.16c-.51-.38-1.1-.74-1.48-1a.53.53,0,0,0-.69.14L7.26,37.21a2.54,2.54,0,0,0-.58,1.67c-.17,3.85-.17,3.85.18,4.28h0l1.42,1.08a.46.46,0,0,0,.64-.06c.44-.52,1.25-1.47,1.45-1.72a2.56,2.56,0,0,0,.57-.93,3.23,3.23,0,0,0,.18-1C11.29,36.55,11.29,36.55,10.85,36.16Z"/><path d="M42.41,2.53a3.08,3.08,0,0,0-1.67-.13c-1.5.26-2.47.41-3,.53-.85.18-.94.27-1.18.52l-1,1.09a.17.17,0,0,0,.06.28l1.84.7A2.48,2.48,0,0,0,39,5.59c2.6-.45,3.18-.54,3.46-.62a2.21,2.21,0,0,0,.9-.56,8.58,8.58,0,0,0,.79-.93c.11-.15.08-.24-.09-.31C43.62,3,42.69,2.62,42.41,2.53Z"/><path d="M34.32,7.82c-.54-.22-1.57-.64-1.65-.66a1.87,1.87,0,0,0-1.44.09c-1.76.66-2.64,1-3.13,1.25a1.55,1.55,0,0,0-.8.72c-.43.76-.81,1.47-1,1.85a.33.33,0,0,0,.14.46c.43.21,1.21.6,1.47.71a1.63,1.63,0,0,0,1.52,0C32.65,11,32.66,11,33,10.74a1.48,1.48,0,0,0,.47-.54c.43-.77.81-1.5,1-1.91A.34.34,0,0,0,34.32,7.82Z"/><path d="M25.05,15.27c-.42-.24-1.06-.58-1.27-.67a1.24,1.24,0,0,0-1.39.11c-3.19,1.87-3.19,1.87-3.53,2.71-.41,1.08-.71,1.9-.87,2.41h0a.69.69,0,0,0,.29.78l1.13.67a1.13,1.13,0,0,0,1.41-.05c1.43-.83,2.16-1.26,2.56-1.52a2.57,2.57,0,0,0,1.09-1.25c.42-1.07.71-2,.86-2.53A.57.57,0,0,0,25.05,15.27Z"/></g><g opacity="0.8"><path d="M8.21,26.35c-.27-.17-.41-.18-.68.09a17.69,17.69,0,0,0-1.21,1.42,3.43,3.43,0,0,0-.93,1.79C4.67,33,4.68,33,4.84,33.3s.4.47.58.64a.38.38,0,0,0,.62,0c.41-.42,1.06-1.18,1.25-1.4a6.19,6.19,0,0,0,1.09-2c.34-1.6.49-2.47.57-3s0-.64-.12-.75S8.4,26.47,8.21,26.35Z"/><path d="M1.92,49.49a2.8,2.8,0,0,0-.32-.74s-.31-.49-.43-.65S1,48,1,48.14l-.09.42a3.15,3.15,0,0,0,0,1.26l.69,3.69A4.43,4.43,0,0,0,2,54.61c.17.32.39.66.44.73s.14,0,.15,0l.17-.69a3,3,0,0,0,0-1C2.73,53.28,2,49.78,1.92,49.49Z"/><path d="M3.78,37.18c-.15-.16-.24-.16-.37,0-.24.37-.6,1.05-.73,1.3a3.55,3.55,0,0,0-.38,1.7c-.12,3.54-.12,3.68.09,4.06h0c0,.06.49.81.59,1a.17.17,0,0,0,.3,0c.07-.1.56-.92.68-1.13a4,4,0,0,0,.47-1.68c.23-4,.14-4.26-.1-4.59A5.61,5.61,0,0,0,3.78,37.18Z"/><path d="M41.45,0,40.39,0a12.06,12.06,0,0,0-1.5.1c-.55.07-2.81.43-3.37.54a2.26,2.26,0,0,0-.93.32c-.42.24-.41.24.16.3l1,.09a5.12,5.12,0,0,0,1.45-.13C39.1.88,40,.75,40.44.69A3.28,3.28,0,0,0,41.57.31C42,.09,42,.09,41.45,0Z"/><path d="M31.66,3.38a2.84,2.84,0,0,0-1.28.27c-1.56.6-2.41.89-2.92,1.12a2.44,2.44,0,0,0-1,.64c-.08.08-.55.57-.79.84-.05.06,0,.12.05.14.47.09.8.14,1,.17a2,2,0,0,0,1.31-.2,25.66,25.66,0,0,0,3.59-1.45,1.93,1.93,0,0,0,.5-.41L33,3.63a.08.08,0,0,0-.06-.13C32.34,3.45,32,3.39,31.66,3.38Z"/><path d="M22.77,8.71a1.75,1.75,0,0,0-1.3.34c-1.08.65-1.76,1.06-2.22,1.35a2.84,2.84,0,0,0-1.15,1.06c-.31.53-.56,1-.75,1.3-.08.13-.16.29-.22.41a.22.22,0,0,0,.12.31c.22.09.55.21.69.25.56.17.72.07,1.26-.24,1.71-1,2.38-1.4,2.72-1.62a3.47,3.47,0,0,0,.92-.95c.35-.58.61-1.08.81-1.45.06-.12.12-.22.16-.31a.19.19,0,0,0-.13-.27C23.28,8.8,23,8.74,22.77,8.71Z"/><path d="M15.5,16.9l-.5-.21c-.58-.23-.69-.14-1.17.21-1.15,1-1.77,1.49-2.14,1.85a2.67,2.67,0,0,0-.7,1.08c-.36.93-.64,1.63-.8,2.11a2.91,2.91,0,0,0-.12.35.46.46,0,0,0,.17.51l.51.33c.46.27.56.23,1-.08C13,22,13.56,21.5,13.88,21.2a3.75,3.75,0,0,0,.9-1.33c.45-1.09.77-2,.93-2.5A.38.38,0,0,0,15.5,16.9Z"/></g><g><path d="M7.76,19.64c-1.67,2.05-1.7,2-2.06,2.91-1.08,2.62-1.11,2.69-1,2.93a5.28,5.28,0,0,0,.42.59c.08.09.12.08.22,0S6.7,24.46,7,24.15a5.61,5.61,0,0,0,.63-.85,5.79,5.79,0,0,0,.4-.84s.81-2.09.86-2.23c.22-.64.19-.71.1-.79C8.27,19.07,8.25,19.09,7.76,19.64Z"/><path d="M.74,38.56c-.08-.24-.11-.27-.22,0s-.2.63-.23.73a3.2,3.2,0,0,0-.17,1C0,43.26,0,44.06,0,44.32a11.17,11.17,0,0,0,.24,1.1c.09.3.13.34.24,0a8.51,8.51,0,0,0,.33-1.3A40.8,40.8,0,0,0,1,39.59C1,39.47.87,38.93.74,38.56Z"/><path d="M3.44,28.32c-.17-.23-.19-.28-.36,0S2.35,29.74,2.25,30a7.24,7.24,0,0,0-.52,1.47c-.33,1.45-.53,2.22-.61,2.7a3.67,3.67,0,0,0-.06.88,5.92,5.92,0,0,0,.19,1c.08.22.16.22.29,0a9.86,9.86,0,0,0,1.09-1.86A12.54,12.54,0,0,0,3,32.83c.27-1.21.53-2.49.64-3s.14-.73,0-1A2.38,2.38,0,0,0,3.44,28.32Z"/><path d="M31.55,1.5A12.27,12.27,0,0,0,30,1.81c-.75.23-2.21.78-2.46.87a7.64,7.64,0,0,0-1,.45,8.39,8.39,0,0,0-1,.61c-.16.12-.2.15,0,.13a5.11,5.11,0,0,0,1-.13c.41-.1.89-.26,1.38-.43.95-.33,1.44-.5,2.56-1a3.4,3.4,0,0,0,.46-.27c.22-.13.49-.33.67-.46S31.8,1.47,31.55,1.5Z"/><path d="M23.11,5.36a6.76,6.76,0,0,0-.75.17,5,5,0,0,0-1.54.7c-2.64,1.67-2.51,1.59-3,2.07-.07.07-.64.64-.91,1-.13.16-.1.17.09.17a6.14,6.14,0,0,0,.73-.1,3,3,0,0,0,1.21-.53A32.63,32.63,0,0,0,21.77,7a3.53,3.53,0,0,0,.55-.5c.07-.08.6-.66.89-1C23.36,5.34,23.36,5.32,23.11,5.36Z"/><path d="M15.35,11.5c-.69,0-.8,0-1.5.6-2.21,2-2.21,2-2.67,2.62a14.62,14.62,0,0,0-1.1,1.81c-.09.19-.08.23.09.31s.26.08.31.1c.45.12.56,0,1.1-.44a26.5,26.5,0,0,0,2.56-2.22,5.51,5.51,0,0,0,.5-.67c.06-.1.89-1.58,1-1.81S15.77,11.51,15.35,11.5Z"/></g></g><g><path d="M156.43,56.08h5.7a8.78,8.78,0,0,0,6-1.93,8.22,8.22,0,0,0,0-12.49,8.74,8.74,0,0,0-6-1.93H151.32V68.05h5.11Zm0-11.4h5.5c1.89,0,2.63.53,3.07,1a3.2,3.2,0,0,1,0,4.45c-.44.47-1.18,1-3.07,1h-5.5Z"/><path d="M96.68,68.05l0-12h4.49l7.89,12h6l-8.71-12.71a7.35,7.35,0,0,0,2-1.22,8.22,8.22,0,0,0,0-12.48,8.76,8.76,0,0,0-6-1.92l-10.8,0,0,28.31Zm5.46-23.37c1.88,0,2.63.53,3.06,1a3.19,3.19,0,0,1,0,4.45c-.44.47-1.18,1-3.06,1h-5.5V44.69Z"/><polygon points="236.92 49.36 252.09 68.06 255.72 68.06 255.72 39.73 250.61 39.73 250.61 58.43 235.43 39.73 231.8 39.73 231.8 68.06 236.92 68.06 236.92 49.36"/><polygon points="194.17 68.06 194.17 63.11 182.27 63.11 182.27 55.31 191.1 55.31 191.1 50.36 182.27 50.36 182.27 44.68 193.79 44.68 193.78 39.73 177.16 39.73 177.16 68.06 194.17 68.06"/><path d="M73.11,68.06A11.33,11.33,0,0,0,84.71,56V39.74h-5V56.19A6.76,6.76,0,0,1,78.16,61a7,7,0,0,1-10.11,0,6.76,6.76,0,0,1-1.5-4.83V39.75h-5V56A11.35,11.35,0,0,0,73.11,68.06Z"/><polygon points="55.47 68.06 55.47 63.11 43.57 63.11 43.57 55.31 52.4 55.31 52.4 50.37 43.57 50.37 43.57 44.69 55.08 44.69 55.08 39.74 38.46 39.74 38.46 68.06 55.47 68.06"/><path d="M221,68.06h5.37L214.76,39.73h-3.54L199.56,68.06h5.38l2.8-7H218.2ZM209.85,56.65l3.22-7.71,3.16,7.74Z"/><path d="M38.46,143.62a6.21,6.21,0,0,0,.79,3l5.32,9.59,5.31-9.59a6.21,6.21,0,0,0,.79-3V99.12L38.46,94.71Z"/><path d="M15.18,77.9l4.95,9.28a3.1,3.1,0,0,0,2.73,1.64H66.27A3.1,3.1,0,0,0,69,87.18l5-9.28Z"/><path d="M247.12,114.05a16.06,16.06,0,0,0,6-4,20,20,0,0,0,0-26.41c-3.53-3.73-8.33-5.74-16.47-5.74H212.85v63.75h12.21V115.7h9.54l17.12,25.93h14.37Zm-3.34-11.83c-1.45,1.55-3.53,2.55-7.69,2.55h-11V88.83h11c4.16,0,6.24,1,7.69,2.55a7.9,7.9,0,0,1,2.08,5.47A7.67,7.67,0,0,1,243.78,102.22Z"/><path d="M105.66,77.1c-19.53,0-33,14.61-33,32.68s13.47,32.68,33,32.68,33-14.62,33-32.68S125.19,77.1,105.66,77.1Zm0,54.47c-11.93,0-20.79-9.81-20.79-21.79S93.73,88,105.66,88s20.8,9.8,20.8,21.79S117.6,131.57,105.66,131.57Z"/><path d="M190,115.58c0,5.81-1.54,9.35-4.16,11.8a16.19,16.19,0,0,1-21.51,0c-2.63-2.45-4.16-6-4.16-11.8V77.9H148v36.77c0,9.72,2.89,16.43,8.14,21.15,4.88,4.36,11.84,6.54,19,6.54s14.11-2.18,19-6.54c5.24-4.72,8.14-11.43,8.14-21.15V77.9H190Z"/><path d="M131.05,39.54c-7.91,0-13.88,6.17-13.88,14.35s6,14.35,13.88,14.35,13.88-6.16,13.88-14.35S139,39.54,131.05,39.54Zm0,23.82c-5,0-8.83-4.07-8.83-9.47s3.8-9.47,8.83-9.47,8.84,4.07,8.84,9.47S136.09,63.36,131.05,63.36Z"/></g></g></svg>