<svg xmlns="http://www.w3.org/2000/svg" viewBox="0 0 340.15748 340.15748"><title>KLMopen</title><path d="M158.54364,108.67978a6.79861,6.79861,0,0,1,3.82737,1.09394c18.67411,9.3599,31.19016,23.9553,36.03436,44.34315,5.69534,23.9753-.28563,45.12862-17.07177,63.19149a54.45932,54.45932,0,0,1-9.3856,7.88608,5.67446,5.67446,0,0,1-1.04824.57125c-.377.14853-.82832.57125-1.04538-.26563-.11995-.46556-.21707-.734.28563-1.02253a8.17207,8.17207,0,0,0,1.47953-1.1425,1.19068,1.19068,0,0,0,.38844-1.54522c-.3913-.68265-1.034-.4313-1.52524-.18566a25.081,25.081,0,0,0-2.36212,1.42812c-1.87369,1.19962-3.87306,1.39385-4.79562.44271s-.75691-2.93051.53983-4.78992a8.94853,8.94853,0,0,1,4.213-3.45035,3.82228,3.82228,0,0,1,3.78452.28563,2.60178,2.60178,0,0,0,3.85021-.4313,32.82391,32.82391,0,0,0,4.55-7.48621,2.3533,2.3533,0,0,0,.14567-1.01111c0-.437-3.2761-3.62171-3.73882-3.5903a3.73028,3.73028,0,0,0-3.15617,2.04512c-.4113.75691-.80546,1.52808-1.231,2.285a9.14,9.14,0,0,1-3.97874,3.73311c-3.83307,1.87084-7.34054-.42558-7.24628-4.6928a9.63221,9.63221,0,0,1,7.22058-8.47161,4.50384,4.50384,0,0,1,4.51572,1.4624c1.75374,1.9251,3.75311,1.78229,4.78421-.60267a19.68918,19.68918,0,0,1,5.007-7.52335c1.22532-1.06537.67121-2.57061-1.0511-2.89909a7.23945,7.23945,0,0,1-4.61568-3.01333c-1.44525-1.92225-3.29039-1.5138-4.03587.85687a13.87307,13.87307,0,0,1-2.43352,4.907,8.04352,8.04352,0,0,1-7.82325,3.07332c-2.87624-.49412-4.5957-2.47349-5.53254-5.14123a10.814,10.814,0,0,1,3.6617-11.92481,7.52407,7.52407,0,0,1,7.99748-.90543,7.97433,7.97433,0,0,1,3.24755,3.02191c.42271.64552.90828,1.22532,1.79943,1.10537a2.22123,2.22123,0,0,0,1.8137-1.65092,5.73136,5.73136,0,0,0,.2999-1.17105,10.71659,10.71659,0,0,1,4.22154-7.26914c.54269-.41416,1.22818-.80832.96827-1.65376-.2285-.74833-.82546-.98826-1.59949-1.05681a8.777,8.777,0,0,1-6.12378-3.4989,8.64913,8.64913,0,0,0-.80547-.90256c-1.49381-1.35672-3.01619-.94542-3.42749,1.03681a10.75576,10.75576,0,0,1-2.85624,5.79247,8.6528,8.6528,0,0,1-11.10793.814A11.82667,11.82667,0,0,1,151.3402,156.142c2.7877-5.74676,10.24534-6.54936,14.76106-1.58235.5027.55411.95683,1.14249,1.471,1.69946a1.59847,1.59847,0,0,0,1.8537.57125,1.54237,1.54237,0,0,0,.94827-1.51666,9.41252,9.41252,0,0,1,4.233-8.05175c1.1025-.77405.82831-1.75374-.38559-1.94224-3.96161-.6141-6.75216-2.9705-9.38275-5.73248-1.30534-1.37675-2.62492-.8055-2.97339,1.19387a9.35238,9.35238,0,0,1-1.55951,4.49858,7.42732,7.42732,0,0,1-7.07492,2.782,10.39361,10.39361,0,0,1-8.43733-6.13234c-1.33386-2.85624-1.32244-5.77247.7112-8.32024s4.85561-2.89623,7.85466-2.3107a11.25881,11.25881,0,0,1,5.37259,2.85625c2.30785,2.07363,3.91876,1.5795,4.57-1.42812a5.28789,5.28789,0,0,1,2.18217-3.40179c1.67948-1.1425,1.50811-2.67059-.67978-3.299a16.82994,16.82994,0,0,1-6.33515-2.99619,7.74183,7.74183,0,0,1-3.10473-4.43289,2.34082,2.34082,0,0,1,2.31071-3.07616,8.9342,8.9342,0,0,1,4.05872.61694c.6398.25421,1.31387.417,1.968.62552a1.42812,1.42812,0,0,0,1.57951-.40273c.47985-.52555.23421-1.0768-.04855-1.60235a10.33068,10.33068,0,0,0-3.77595-3.46462C160.40875,110.59918,159.112,110.11648,158.54364,108.67978Zm28.93658,38.05373A8.04584,8.04584,0,0,0,183.55,139.7043a3.05869,3.05869,0,0,0-4.79278,2.04222c-.71406,3.18186.60838,5.71249,2.88766,7.81753a3.5186,3.5186,0,0,0,3.99874.80547A3.48346,3.48346,0,0,0,187.48022,146.73351Zm6.198,19.90515a6.06382,6.06382,0,0,0-1.56235-4.21582,3.24749,3.24749,0,0,0-5.56968.5284,6.18557,6.18557,0,0,0,.47126,6.96352,3.316,3.316,0,0,0,3.319,1.73374,3.86942,3.86942,0,0,0,2.8848-2.4478,5.427,5.427,0,0,0,.457-2.562ZM166.624,120.65316c0,3.0619,4.15012,7.49478,7.17488,7.69472a2.07825,2.07825,0,0,0,2.31354-2.762,9.85223,9.85223,0,0,0-6.675-7.0692c-1.69091-.56269-2.822.36274-2.81341,2.13361Zm26.65445,64.51394a3.01736,3.01736,0,0,0-1.86514-2.92479c-1.49952-.56839-2.62774.26563-3.60743,1.32816a6.22951,6.22951,0,0,0-1.64806,4.40432c.02572,1.391.23136,2.92479,1.94224,3.47318,1.66234.53412,2.72485-.42557,3.64743-1.57093a6.8246,6.8246,0,0,0,1.53094-4.7128Zm-4.25295,17.7087a1.41957,1.41957,0,0,0-1.85942-1.55094,5.82934,5.82934,0,0,0-3.91019,4.5957c-.10568,1.49381.72834,2.145,2.1479,1.67376a6.56484,6.56484,0,0,0,3.62169-4.71852Z"/><path d="M228.62725,163.49964c0,2.31926-.04286,5.14123.02,7.94892.02286,1.01682-.1885,1.42812-1.31386,1.38527-2.53635-.08568-5.07841-.06569-7.6176,0-1.0054.02572-1.25675-.32275-1.25389-1.28531q.05139-12.47033,0-24.9407c0-.94256.19708-1.3253,1.22532-1.29959,2.59633.06569,5.19551.05713,7.79184,0,.914-.02286,1.18249.25135,1.16535,1.16535-.05713,2.8791-.02,5.75818-.02,9.14l4.50716-4.66139c1.60235-1.65948,3.21042-3.3161,4.80134-4.98415a1.71375,1.71375,0,0,1,1.331-.65407c3.0476.02571,6.09806,0,9.53985,0-2.63345,2.69629-5.02414,5.14123-7.412,7.59475-1.16821,1.19963-2.285,2.45066-3.50747,3.5903-.76548.71406-.59981,1.1425.08568,1.77943q7.30342,6.76071,14.56683,13.57287l-.35989.64837V170.7288c0-7.96892.02572-15.935-.03141-23.90389,0-1.19677.26563-1.59093,1.5081-1.53952,2.42209.10282,4.85562.09426,7.272,0,1.1425-.04285,1.42812.31418,1.42812,1.42812-.05427,5.82959.01714,11.662-.04569,17.49163-.01428,1.26245.26849,1.69089,1.60807,1.668,4.61853-.08568,9.23709,0,13.85563-.05141,1.11108,0,1.54522.26563,1.45953,1.42812a42.053,42.053,0,0,0,0,4.32721c.02856.834-.12281,1.231-1.11678,1.22818q-19.30533-.04568-38.61068,0a2.4333,2.4333,0,0,1-1.75087-.92256C234.65391,169.05789,231.56631,166.20165,228.62725,163.49964Z"/><path d="M304.66611,160.12356c1.48523-4.51572,2.99334-9.02572,4.44147-13.55288.28563-.874.59981-1.291,1.62805-1.27673q7.18635.09994,14.36977,0c1.1025-.01428,1.3253.34275,1.31958,1.37385q-.05424,12.3761,0,24.75505c0,1.19676-.42272,1.42812-1.50239,1.3967-2.42209-.0714-4.85561-.08568-7.26912,0-1.1425.0457-1.42812-.32275-1.42812-1.42812.05143-5.30976.02284-10.61664.02284-15.9264v-1.65092l-.43988-.09712c-.65409,1.99937-1.31386,3.99874-1.96223,6.01524-1.28817,3.99874-2.57062,7.98034-3.84449,11.97622a1.38668,1.38668,0,0,1-1.58237,1.1425c-2.53635-.08568-5.07841-.09712-7.61475,0-1.1425.04-1.58237-.37131-1.91081-1.42812-1.79087-5.68107-3.65887-11.33928-5.50113-17.00606-.12283-.37417-.26847-.74261-.5884-1.63092-.04571.89115-.08284,1.28817-.08284,1.68519,0,5.59539-.03713,11.19361.01715,16.789,0,1.1425-.19992,1.63092-1.48523,1.57665-2.47637-.10854-4.96129-.06855-7.42623,0-.97683.02286-1.27673-.28562-1.27389-1.26817q.06-12.55319,0-25.10066c0-.95113.32848-1.14249,1.19677-1.14249,4.85561.03427,9.69692.05712,14.54113-.01714,1.05966-.01714,1.3767.45129,1.64234,1.28817,1.42812,4.52429,2.9105,9.04,4.37007,13.55857Z"/><path d="M128.873,194.83261a30.82238,30.82238,0,0,0,5.65535-1.57379.87686.87686,0,0,0,.61981-.72548c1.03968.87687,1.91939-.11425,2.79911-.34275,2.32785-.60552,4.5957-1.42812,6.8864-2.17931a6.37,6.37,0,0,1-1.57951,2.77911c-2.70771.39417-5.14124,1.65662-7.69472,2.51349-5.39259,1.808-10.788,3.59316-16.22917,5.2612A358.75909,358.75909,0,0,1,72.99915,211.813a234.496,234.496,0,0,1-26.41735,2.9448c-7.9832.41416-15.88642.28562-23.70681-1.51952a17.96,17.96,0,0,1-5.14124-1.99937c-4.02444-2.37354-5.16408-5.53826-3.65313-9.96543,1.42812-4.14156,4.22152-7.26628,7.45194-9.99685,8.30309-7.03493,17.92577-11.882,27.68841-16.48052a1.87974,1.87974,0,0,1,.51412-.07141c.58553,1.45668-.65979,1.66234-1.44812,2.03936a115.92634,115.92634,0,0,0-14.47543,8.09174,36.01115,36.01115,0,0,0-8.65727,7.57476,11.99609,11.99609,0,0,0-2.385,4.74136c-.94542,4.14441.37131,7.1406,4.10156,9.09428,4.53571,2.39353,9.49129,3.17042,14.504,3.4589,11.49352.65979,22.88421-.60552,34.25491-2.09649.51127-.06568,1.014-.19994,1.51952-.30276l1.83085-.34845,4.77278-.69692,5.96669-1.07109c1.48525-.33418,2.97049-.68265,4.46145-.99969a2.21955,2.21955,0,0,0,1.49382-.69978c3.86735-.15709,7.50906-1.36814,11.17933-2.43067.08-.02571.12567-.1828.18851-.28562,2.37354.19994,4.45-.96541,6.67789-1.44526,1.77659-.47129,3.57888-.85687,5.32119-1.42812C122.31792,196.8634,125.75682,196.35214,128.873,194.83261Z"/><path d="M322.59189,202.3788v-3.73025c0-4.85561.03141-9.69409-.0257-14.53828,0-1.11108.26279-1.52238,1.42812-1.47381,2.9105.12281,2.41351-.36561,2.42209,2.31926.0257,7.20916-.0257,14.42117.04571,21.63318,0,1.311-.33988,1.57951-1.6195,1.62806a4.93318,4.93318,0,0,1-4.63-2.145c-4.24151-5.53254-8.71725-10.88514-13.10444-16.30344-.3913-.4827-.7969-.95683-1.2139-1.45383-.57125.50842-.32276,1.05681-.32562,1.53094-.02,5.59539-.10854,11.19361.03714,16.78614.05425,2.07078-1.21105,1.40241-2.21645,1.51381-1.1168.12281-1.73944-.01428-1.71375-1.48525.08856-7.49764.07427-14.99813.0143-22.49863,0-1.2339.3913-1.42812,1.5338-1.54808,2.21359-.24849,3.55315.6398,4.88417,2.345,4.60712,5.90384,9.38274,11.67917,14.09554,17.50305Z"/><path d="M146.89016,167.784c.02285,5.48685-4.05015,10.05683-9.22566,9.73978-5.484-.33418-9.61411-3.3104-9.84261-10.04826-.19422-5.66393,3.94161-9.99685,9.18282-10.01113A10.11888,10.11888,0,0,1,146.89016,167.784Z"/><path d="M272.64193,131.46689c6.23232,0,12.46464.02857,18.69409-.0257,1.14249,0,1.49667.30276,1.42812,1.42812-.11426,1.77372.57125,4.10442-.30278,5.18979-.92542,1.1425-3.34465.33419-5.10982.3399-11.19361.03427-22.38723,0-33.58084.05141-1.29389,0-1.7423-.30562-1.59379-1.61093.19708-1.75373-.75119-4.1187.39131-5.11553.994-.85687,3.29609-.25706,5.01841-.25992Q265.08861,131.45974,272.64193,131.46689Z"/><path d="M232.38891,208.79678c-5.33546.02-9.95971-1.50524-12.6046-6.53508-3.99873-7.61189-1.191-19.9537,11.87912-20.21649,3.84735-.07712,7.52335.51984,10.49669,3.14187,4.18154,3.71311,5.07841,8.50874,3.96161,13.71s-4.45,8.3031-9.60555,9.49415A15.89835,15.89835,0,0,1,232.38891,208.79678Zm-10.41956-13.46147c-.07713,6.755,4.49,10.09111,10.28247,10.21679,6.23232.13709,10.471-3.99874,10.49383-10.054s-4.15583-10.28247-10.36244-10.19964C226.03377,185.39274,222.02076,189.0773,221.96935,195.33531Z"/><path d="M276.42645,195.29246c0-3.696.04-7.38909-.02856-11.08221-.02-1.1425.20564-1.59093,1.49381-1.57379q8.74006.11424,17.48591,0c1.31958-.01714,1.64805.36845,1.6309,1.64519-.01715,1.20819-.19424,1.71375-1.58237,1.66806-4.49858-.10282-9.00288,0-13.50432-.06283-1.20248-.01714-1.82514.15709-1.67089,1.57379.2085,1.92511-.79975,4.46431.39416,5.6468,1.1025,1.09108,3.61887.27134,5.51256.28562,3.059.03713,6.12094.08854,9.17425-.02855,1.48809-.05427,1.19392.83687,1.19392,1.65661s.30846,1.68519-1.18535,1.65376c-4.49858-.1-9.00574.02-13.50432-.07141-1.34243-.02571-1.67947.38559-1.59378,1.65092a33.89511,33.89511,0,0,1,0,4.85561c-.10568,1.40241.28562,1.8737,1.77087,1.83942,4.61284-.10568,9.23422.03714,13.84991-.08,1.52809-.03713,1.42812.70834,1.48524,1.75944.06854,1.20532-.28563,1.55665-1.52237,1.54237q-9.00573-.1-18.0086,0c-1.17677,0-1.42812-.36274-1.40813-1.45383C276.46358,202.91293,276.42645,199.1027,276.42645,195.29246Z"/><path d="M105.626,174.30194c0-5.71248,3.35608-9.47986,7.69471-9.76549,4.26723-.28562,8.23454,3.42749,8.80008,7.97748a9.66177,9.66177,0,0,1-1.58521,7.27484,7.82724,7.82724,0,0,1-12.30183.37417A10.05744,10.05744,0,0,1,105.626,174.30194Z"/><path d="M250.77168,195.35817c0-3.75311.03427-7.50621-.02571-11.25644-.01714-1.08251.21136-1.50239,1.4024-1.47382,4.2101.1,8.42592.04,12.63887.12282,4.907.09712,7.78326,2.67344,7.71186,7.16346-.08283,4.72138-2.34212,7.73471-7.78326,8.06888-2.81625.17423-5.65536.09141-8.483,0-1.23962-.04-1.71375.2228-1.6452,1.57951.12281,2.41639-.02,4.85562.06,7.26914.03713,1.08251-.30562,1.35386-1.36244,1.33958-2.50779-.04-2.50779.02-2.50779-2.4278Zm8.78294-.75405c1.85656,0,3.24183.05141,4.61854,0,2.85625-.12854,4.61284-1.8537,4.53858-4.37-.07713-2.63345-1.71375-4.20438-4.59855-4.28436-2.07077-.06283-4.14441-.02286-6.218-.02286-3.279,0-3.30753,0-3.26754,3.35323.02,1.71374-.72834,3.96732.28562,5.00414C255.98718,195.39814,258.275,194.45559,259.55462,194.60412Z"/><path d="M131.31222,135.63986a8.33434,8.33434,0,1,1-8.70582,8.14885A8.34606,8.34606,0,0,1,131.31222,135.63986Z"/><path d="M143.25417,192.79041a6.37052,6.37052,0,0,0,1.57951-2.77912c-2.285.74262-4.57,1.5738-6.8864,2.17932-.87972.22849-1.75945,1.21962-2.79911.34275-.21708-3.91591,1.20819-7.01779,4.74993-8.85435a8.124,8.124,0,0,1,9.2171.98541c3.496,2.67058,4.23009,8.60014,1.51666,12.159a8.4574,8.4574,0,0,1-11.94766,1.83942c-.70835-.55125-1.98224-1.03682-1.828-1.85084.1-.53411,1.50524-.9397,2.385-1.17391C140.96917,195.18393,142.51439,194.587,143.25417,192.79041Z"/><path d="M149.97491,204.93228a5.82763,5.82763,0,0,1,6.16378,5.61252c.02285,3.71312-3.66171,7.212-7.609,7.212a5.99961,5.99961,0,0,1-6.238-6.14377C142.30875,208.07987,145.939,204.94942,149.97491,204.93228Z"/><path d="M126.34807,130.81566a8.10309,8.10309,0,0,1-4.24437-1.1425,5.10852,5.10852,0,0,1-.72263-8.46018,8.54983,8.54983,0,0,1,9.35133-1.05682,5.14206,5.14206,0,0,1,.57125,8.86863A9.21525,9.21525,0,0,1,126.34807,130.81566Z"/><path d="M115.04878,148.99279c-.14,3.97588-3.18757,7.19487-6.73788,7.11775-3.23612-.06855-5.58967-2.7677-5.46113-6.26946.13138-3.76452,3.476-7.06062,6.98636-6.92922C112.978,143.04609,115.16874,145.59671,115.04878,148.99279Z"/><path d="M146.83019,127.41673a9.538,9.538,0,0,1-7.53477-3.84735,4.27992,4.27992,0,0,1,2.285-6.88355,10.11529,10.11529,0,0,1,9.85975,3.0876c1.20819,1.4881,1.84228,3.11045.98255,4.94986s-2.47635,2.4478-4.34435,2.63346C147.74133,127.391,147.39286,127.391,146.83019,127.41673Z"/><path d="M98.74535,180.73421a6.25519,6.25519,0,0,1-.82546,3.279,4.38562,4.38562,0,0,1-6.855,1.49667,8.87889,8.87889,0,0,1-2.59632-10.13395c1.5595-3.49032,5.45256-4.06728,7.99748-1.16535A9.2284,9.2284,0,0,1,98.74535,180.73421Z"/><path d="M136.84476,217.47691a4.71042,4.71042,0,0,1-3.82451,4.77278,8.36372,8.36372,0,0,1-8.09745-2.31926c-3.079-2.97906-2.03936-7.11205,2.04507-8.37165a8.2757,8.2757,0,0,1,8.92575,2.96192A4.31123,4.31123,0,0,1,136.84476,217.47691Z"/><path d="M293.23828,116.67441a6.20115,6.20115,0,0,1-.22851,12.399,6.20474,6.20474,0,0,1,.22851-12.399Z"/><path d="M279.37409,116.68012c3.11615.19708,6.14376,2.25643,6.06382,6.28373a6.07453,6.07453,0,1,1-12.14189-.23706A6.19108,6.19108,0,0,1,279.37409,116.68012Z"/><path d="M257.7552,122.87817a6.12466,6.12466,0,0,1-6.041,6.2009,6.205,6.205,0,0,1,.1828-12.40752A6.08656,6.08656,0,0,1,257.7552,122.87817Z"/><path d="M271.59369,122.89245a6.06332,6.06332,0,1,1-6.06095-6.21233A6.12754,6.12754,0,0,1,271.59369,122.89245Z"/><path d="M128.873,194.83261c-3.11617,1.51953-6.55508,2.03079-9.81406,3.10188-1.74231.57125-3.54459.95969-5.32118,1.42812a7.12925,7.12925,0,0,1,6.23233-9.82832A9.14658,9.14658,0,0,1,128.873,194.83261Z"/><path d="M110.82439,215.97738a9.34279,9.34279,0,0,1,7.44051,4.90416c1.29388,2.33355.43414,4.11014-2.08791,4.63282-3.04476.62838-8.46019-2.37354-9.517-5.26977C105.67174,217.53118,106.90278,215.99738,110.82439,215.97738Z"/><path d="M105.68031,134.36312a3.219,3.219,0,0,1-3.299-4.28437,7.05208,7.05208,0,0,1,5.66392-5.15837,3.468,3.468,0,0,1,3.973,4.51572A6.63074,6.63074,0,0,1,105.68031,134.36312Z"/><path d="M107.05987,200.81073c-.06284.09426-.10854.25135-.18852.28562-3.67027,1.06251-7.312,2.285-11.17933,2.43066a9.75963,9.75963,0,0,1-.537-3.37893,4.37213,4.37213,0,0,1,5.30976-4.36149C103.5524,196.28645,105.52892,198.25724,107.05987,200.81073Z"/><path d="M152.31416,228.92471c-1.81657.06569-3.26183-.30848-3.99874-1.83942-.64552-1.331.03427-2.98763,1.54238-4.22153a7.19477,7.19477,0,0,1,5.2869-1.63092,3.132,3.132,0,0,1,2.89624,1.848,3.16615,3.16615,0,0,1-.68835,3.37036A6.331,6.331,0,0,1,152.31416,228.92471Z"/><path d="M272.73047,106.54332c1.25675-.30847,1.75374.32847,1.5338,1.66519-.24563,1.471.25421,2.17645,1.83084,1.888,1.48239-.28563,1.50239.65693,1.49381,1.748s.02572,2.02793-1.47953,1.73088c-1.58235-.31133-2.02222.39987-1.87655,1.87655.05427.54555.40844,1.45954-.3913,1.65662a5.327,5.327,0,0,1-2.722,0c-.67121-.20565-.36561-1.1425-.28563-1.71375.16281-1.42812-.34845-2.05078-1.79942-1.80514-1.31959.21992-1.7623-.26563-1.74231-1.65948s.28563-2.09077,1.78516-1.81656,1.83942-.457,1.75659-1.83372C270.714,106.54046,270.80537,106.53475,272.73047,106.54332Z"/><path d="M85.78086,156.41616a6.18807,6.18807,0,0,1,2.43352-5.06411c1.87655-1.36529,3.83879-.67407,4.63,1.5138a6.26529,6.26529,0,0,1-.63979,5.42686c-.994,1.77658-2.57062,2.61631-4.05587,2.27072C86.74627,160.25209,85.80943,158.6783,85.78086,156.41616Z"/><path d="M139.09548,232.6921a8.05426,8.05426,0,0,1-4.967-1.39385,2.3,2.3,0,0,1,.11425-4.07586,7.7618,7.7618,0,0,1,7.96319.597c1.80515,1.54238,1.59093,3.31039-.54269,4.30436A5.141,5.141,0,0,1,139.09548,232.6921Z"/><path d="M80.89669,185.85545a10.81507,10.81507,0,0,1-.25135,1.59664,2.00365,2.00365,0,0,1-3.37893,1.05968c-1.99937-1.62235-3.09617-6.40655-2.01937-8.78295.6855-1.5081,2.26215-1.71374,3.49319-.357C80.34258,181.11979,80.77958,183.31054,80.89669,185.85545Z"/><path d="M124.37155,109.26532a6.979,6.979,0,0,1,1.53666.15709c1.0511.337,2.07649.78833,2.285,2.06507a2.56515,2.56515,0,0,1-1.52809,2.65345,6.68086,6.68086,0,0,1-6.08951.69978c-2.12505-.80545-2.405-2.64773-.6855-4.12727A6.39858,6.39858,0,0,1,124.37155,109.26532Z"/><path d="M137.46742,107.523a8.036,8.036,0,0,1,5.56681,1.75659c1.311,1.09108,1.06823,2.57062-.48557,3.29324-2.11932.974-6.26659.20279-7.9432-1.47668-1.251-1.25389-.99969-2.50778.59695-3.25611A6.766,6.766,0,0,1,137.46742,107.523Z"/><path d="M101.59873,225.04023c-2.25643.03713-7.30341-3.55888-8.01747-5.71248-.44557-1.34244.12-2.09077,1.51666-1.77944a11.3709,11.3709,0,0,1,7.55191,5.544C103.35246,224.30046,102.87547,225.04023,101.59873,225.04023Z"/><path d="M106.30011,119.07365a1.94613,1.94613,0,0,1-2.11077-.85687,2.18657,2.18657,0,0,1,.397-2.40781,7.93117,7.93117,0,0,1,5.29833-3.23041,2.19915,2.19915,0,0,1,2.20216.69693,2.12893,2.12893,0,0,1-.11711,2.43637A7.20053,7.20053,0,0,1,106.30011,119.07365Z"/><path d="M122.138,229.84157a11.662,11.662,0,0,1,5.78389,1.82515c.8426.54269,1.69375,1.22248,1.29959,2.365-.35417,1.03968-1.42812.83688-2.245.834a12.08768,12.08768,0,0,1-5.78389-1.49381c-1.01682-.54839-2.33926-1.14249-1.968-2.47921C119.5702,229.63307,120.99547,229.9187,122.138,229.84157Z"/><path d="M87.16042,137.068a6.31534,6.31534,0,0,1,3.7274-5.36973c1.49952-.477,2.35069.1371,2.37353,1.71374a6.39916,6.39916,0,0,1-3.48747,5.37831C88.1544,139.45865,87.17185,138.80744,87.16042,137.068Z"/><path d="M117.94215,204.29534c2.97906-1.22532,5.71248-2.36781,8.45448-3.44748a8.30378,8.30378,0,0,1,.92828-.36275c.7112-.1828,1.56522-1.07109,2.07077-.45129.43415.53126-.24849,1.48811-.61124,2.17074C126.89932,205.752,122.32362,206.71173,117.94215,204.29534Z"/><path d="M89.73676,205.21791,83.77007,206.289c-.42558-1.1425-.934-2.23073-1.24532-3.38464-.21422-.80547-.42558-1.77944.417-2.39925a2.31129,2.31129,0,0,1,2.61346.03427A10.4296,10.4296,0,0,1,89.73676,205.21791Z"/><path d="M77.275,160.949a7.39441,7.39441,0,0,1-1.371,4.26151c-.89686,1.07681-2.05935.85687-2.45922-.477a7.33768,7.33768,0,0,1,.54269-5.504c.36274-.72548.83973-1.47667,1.77944-1.36813.98541.11139,1.11393,1.04823,1.33387,1.80514A7.71279,7.71279,0,0,1,77.275,160.949Z"/><path d="M149.86351,107.52587a12.36743,12.36743,0,0,1,6.31515,2.50778,1.44056,1.44056,0,0,1,.7112,1.45668c-.18566.74263-.85687.65409-1.42812.65123a10.28894,10.28894,0,0,1-6.47795-2.4021c-.50556-.39988-.96827-.92828-.75406-1.61378C148.49536,107.29736,149.298,107.67439,149.86351,107.52587Z"/><path d="M116.93961,234.61722c-1.80229.60266-7.14061-1.08537-8.16029-2.54206-.13424-.19423-.28562-.36275-.13138-.60553.23421-.35131.59695-.30562.934-.25991a13.21831,13.21831,0,0,1,6.18663,2.385C116.177,233.89458,116.53973,234.26589,116.93961,234.61722Z"/><path d="M67.80368,183.99889c0-.46843-.02-.814,0-1.1425s-.03142-.7826.41986-.80832a.92258.92258,0,0,1,.65123.46271,14.66106,14.66106,0,0,1,1.77087,6.92639c0,.377-.11711.74261-.47414.81118s-.61124-.30562-.76262-.59981A14.30411,14.30411,0,0,1,67.80368,183.99889Z"/><path d="M92.85292,123.19236c-.537.01714-.97969-.35132-.58552-1.16249a6.94922,6.94922,0,0,1,3.94446-3.67028c.557-.20279,1.19106-.14852,1.1168.774C97.223,120.41323,94.45527,123.10667,92.85292,123.19236Z"/><path d="M68.22354,165.10484c-.14852,1.09109-.28562,2.23073-.47127,3.3618-.07712.457-.28563.87973-.90258.81689-.57125-.05713-.57125-.47129-.62837-.85688a13.69334,13.69334,0,0,1,.61124-5.42686c.09425-.34275.26277-.68264.68264-.63123.47985.06.3656.51412.42273.8226C68.05217,163.791,68.135,164.4165,68.22354,165.10484Z"/><path d="M78.98872,206.98592l-1.82228.34561c-.7969-1.38813-1.58807-2.782-2.39639-4.1644-.23707-.40559-.537-.78261-.02857-1.19677s.95113.12567,1.15963.32847A13.29864,13.29864,0,0,1,78.98872,206.98592Z"/><path d="M141.28051,236.82509c-.50842-.19708-1.90511.49984-1.99937-.74262-.0914-1.14249,1.331-.97683,2.13646-1.22248a5.72665,5.72665,0,0,1,2.89052-.02571c.43129.09426.99968.28562,1.05681.76261.06.53412-.497.68835-.92256.85687A7.28,7.28,0,0,1,141.28051,236.82509Z"/><path d="M160.146,231.641c-.55125-.01428-.94827.16567-1.11678-.26277a.91784.91784,0,0,1,.39416-1.04537,7.4521,7.4521,0,0,1,4.1387-1.83371c.34275-.03713.85687-.21993.97113.37131a.99111.99111,0,0,1-.417,1.04824A8.67721,8.67721,0,0,1,160.146,231.641Z"/><path d="M151.7829,234.76573c-.77975-.03713-1.50239.14853-1.71375-.53125s.40273-1.03968.88259-1.32816a6.23238,6.23238,0,0,1,3.25041-.95114,1.01969,1.01969,0,0,1,1.05967.71692c.13995.45415-.17995.76833-.5027,1.0054A5.05836,5.05836,0,0,1,151.7829,234.76573Z"/><path d="M79.043,142.42057a6.56935,6.56935,0,0,1-1.15963,3.75025c-.19423.28562-.52841.57125-.85688.437a.93681.93681,0,0,1-.43414-.70264,6.4865,6.4865,0,0,1,1.2796-4.17868.66835.66835,0,0,1,.92257-.19422A.806.806,0,0,1,79.043,142.42057Z"/><path d="M133.82857,105.11806a12.25481,12.25481,0,0,1-3.15615-.59981c-.28562-.12282-.57125-.30562-.517-.57125a.95114.95114,0,0,1,.60267-.52269,9.50783,9.50783,0,0,1,4.74421.19994c.37417.08568.89686.24849.85687.70263s-.537.52269-.954.57125C134.83968,104.96667,134.277,105.05522,133.82857,105.11806Z"/><path d="M69.35461,152.94012a10.28618,10.28618,0,0,1,1.40528-6.378,1.01688,1.01688,0,0,1,.62837-.50842c.40274-.05712.397.35418.38274.6141A9.54118,9.54118,0,0,1,69.35461,152.94012Z"/><path d="M109.41056,109.24246c-.42844.02285-.80832.07427-.9597-.33989-.1171-.317.10282-.52841.337-.7112a9.83536,9.83536,0,0,1,4.11584-1.61378.55412.55412,0,0,1,.69122.3656c.1.317-.09711.53412-.32847.72263A8.67989,8.67989,0,0,1,109.41056,109.24246Z"/><path d="M86.872,218.21667a14.21547,14.21547,0,0,1,5.88957,5.00414A13.6928,13.6928,0,0,1,86.872,218.21667Z"/><path d="M97.97416,114.19234a11.96954,11.96954,0,0,1,6.14378-3.77881A11.63589,11.63589,0,0,1,97.97416,114.19234Z"/><path d="M128.09038,236.57374c2.285-.814,4.41-.17137,6.53222.6141A9.80731,9.80731,0,0,1,128.09038,236.57374Z"/><path d="M140.48361,103.75277a18.01726,18.01726,0,0,1,6.92067,1.3053C145.82478,105.755,142.57438,105.15518,140.48361,103.75277Z"/><path d="M123.65749,104.64677c-.477,1.22247-2.8391,2.1736-3.913,1.49953-.66265-.417-.49128-.91971.14567-1.31387C120.68985,104.34687,121.59814,104.28117,123.65749,104.64677Z"/><path d="M80.43684,129.74457a8.79554,8.79554,0,0,1,3.2247-3.93876A5.07182,5.07182,0,0,1,80.43684,129.74457Z"/></svg>