<svg id="Calque_1" data-name="Calque 1" xmlns="http://www.w3.org/2000/svg" xmlns:xlink="http://www.w3.org/1999/xlink" viewBox="0 0 1661.76 484.99"><defs><style>.cls-1{fill:none;}.cls-2{clip-path:url(#clip-path);}.cls-3{fill:#fff;}</style><clipPath id="clip-path" transform="translate(-12.33 -144.04)"><rect class="cls-1" x="12.33" y="144.04" width="1720.85" height="484.99"/></clipPath></defs><title>kornferry</title><g id="g10"><g id="g12"><g class="cls-2"><g id="g14"><g id="g20"><path id="path22" d="M159.45,176h-34l-112.3,129a3.34,3.34,0,0,0-.83,2.22v.4a3.38,3.38,0,0,0,.61,1.94l99.37,142.52h78.15v-4H169.87L48.55,274.27l79.14-92.54h31.79Z" transform="translate(-12.33 -144.04)"/></g><path id="path24" d="M217,484.3h-5.72V144H217Z" transform="translate(-12.33 -144.04)"/><g id="g26"><path id="path28" d="M378.81,175.77H252.15v5.72h39.5c22.61,0,71.92,12.71,87.16,80.7v4.26h4V175.77Z" transform="translate(-12.33 -144.04)"/></g><g id="g30"><path id="path32" d="M317.49,253.18v1c-7.66,28.18-10.44,51.77-62.38,56.36h-2.94v4.1h2.94c51.94,4.58,54.72,28.18,62.38,56.35v1.81h3V253.18Z" transform="translate(-12.33 -144.04)"/></g><path id="path34" d="M485.76,282.55h11.79V178H485.76Z" transform="translate(-12.33 -144.04)"/><g id="g36"><path id="path38" d="M572.94,178H555.48l-43.17,45.72L559,282.55h15.9l-46.12-59.07Z" transform="translate(-12.33 -144.04)"/></g><g id="g40"><path id="path42" d="M614.61,229.44a42.12,42.12,0,0,0,3,15.95,40,40,0,0,0,8.39,13,37,37,0,0,0,12.45,8.45,38.21,38.21,0,0,0,14.84,3,38.92,38.92,0,0,0,15.13-3,36.77,36.77,0,0,0,12.38-8.38,37.75,37.75,0,0,0,8.16-12.9,44.25,44.25,0,0,0,2.89-16.1,42.35,42.35,0,0,0-3-16.09,38.38,38.38,0,0,0-8.45-12.9,38.81,38.81,0,0,0-12.46-8.38,37.27,37.27,0,0,0-14.61-3,38.21,38.21,0,0,0-14.84,3A37.71,37.71,0,0,0,626,200.45a39.16,39.16,0,0,0-8.39,12.9,42.54,42.54,0,0,0-3,16.09m-14.09,0a54.29,54.29,0,0,1,4-20.76,51.28,51.28,0,0,1,11.27-17.06,53.74,53.74,0,0,1,57.85-11.49,51,51,0,0,1,28.26,28.18A54.93,54.93,0,0,1,706,229.44a54,54,0,0,1-4.08,20.92,52.42,52.42,0,0,1-11.35,17.06,51.83,51.83,0,0,1-16.91,11.27,52.45,52.45,0,0,1-20.32,4,53.91,53.91,0,0,1-20.4-3.93,50.83,50.83,0,0,1-28.33-28.18,54.73,54.73,0,0,1-4.08-21.14" transform="translate(-12.33 -144.04)"/></g><g id="g44"><path id="path46" d="M796.32,190.14H770.51v38h26.7q11.71,0,18.83-5.27a16.69,16.69,0,0,0,7.12-14.16q0-18.54-26.84-18.54m-25.81,91.22H757V177.53h39.75q13.93,0,22.77,3.78t13.13,10.53q4.29,6.75,4.3,16.84a27.77,27.77,0,0,1-7.05,19,32.58,32.58,0,0,1-18.32,10.39l33.23,43.31H828.35L797.5,240.72h-27Z" transform="translate(-12.33 -144.04)"/></g><g id="g48"><path id="path50" d="M978.31,281.36H967.78l-55.92-69.72-8.16-12.45.45,14.68v67.49h-13V177.53h10.68l55.77,69.86L965.71,260l-.45-14.09V177.53h13Z" transform="translate(-12.33 -144.04)"/></g><g id="g52"><path id="path54" d="M1077.81,281.36V177.53h74.6v12.61h-61v35.6h56.81v12.6h-56.81v43Z" transform="translate(-12.33 -144.04)"/></g><g id="g56"><path id="path58" d="M1203,281.36V177.53h74.76v12.61h-61.26v32.33h57.11v12.31h-57.11v34h62.6v12.61Z" transform="translate(-12.33 -144.04)"/></g><g id="g60"><path id="path62" d="M1371.2,190.14h-25.81v38h26.7q11.72,0,18.84-5.27a16.72,16.72,0,0,0,7.12-14.16q0-18.54-26.85-18.54m-25.81,91.22h-13.5V177.53h39.75q14,0,22.77,3.78t13.13,10.53q4.31,6.75,4.3,16.84a27.81,27.81,0,0,1-7,19,32.61,32.61,0,0,1-18.32,10.39l33.22,43.31h-16.46l-30.86-40.64h-27Z" transform="translate(-12.33 -144.04)"/></g><g id="g64"><path id="path66" d="M1505.29,190.14h-25.81v38h26.7q11.71,0,18.83-5.27a16.69,16.69,0,0,0,7.12-14.16q0-18.54-26.84-18.54m-25.81,91.22H1466V177.53h39.75q13.95,0,22.77,3.78t13.13,10.53q4.29,6.75,4.3,16.84a27.77,27.77,0,0,1-7,19,32.58,32.58,0,0,1-18.32,10.39l33.23,43.31h-16.47l-30.85-40.64h-27Z" transform="translate(-12.33 -144.04)"/></g><g id="g68"><path id="path70" d="M1674.08,177.53l-41.83,64.52v39.31h-13.49V242.05l-41.39-64.52h16.47l32,50.28,32.48-50.28Z" transform="translate(-12.33 -144.04)"/></g><g id="g84"><path id="path86" d="M485.76,349.84h89v25.42H543.24v76.79h-26V375.26H485.76Z" transform="translate(-12.33 -144.04)"/></g><g id="g88"><path id="path90" d="M660.79,428.72c15.57,0,27.51-12.31,27.51-27.78s-11.94-27.78-27.51-27.78a27.78,27.78,0,0,0,0,55.56m0-80.85c29.58,0,53.72,23.85,53.72,53.07S690.37,454,660.79,454c-29.19,0-53.71-23.84-53.71-53.07s24.52-53.07,53.71-53.07" transform="translate(-12.33 -144.04)"/></g><g id="g92"><path id="path94" d="M846.72,349.84v57.52c0,26.34-16.35,46.65-46.58,46.65s-46.45-20.31-46.45-46.65V349.84h25.95v56c0,14.81,7,22.93,20.5,22.93s20.76-8.12,20.76-22.93v-56Z" transform="translate(-12.33 -144.04)"/></g><g id="g96"><path id="path98" d="M916.53,373.69v27.25h22.18c10.38,0,14.28-6.42,14.28-13.49,0-7.87-3.9-13.76-14.28-13.76Zm23.61-23.85c26,0,37.89,17,37.89,37.34,0,14.29-6.36,27.65-20,33.94L980,452.05H949l-19.2-27.39H916.53v27.39H890.71V349.84Z" transform="translate(-12.33 -144.04)"/></g><g id="g100"><path id="path102" d="M1089.56,590.18a34.2,34.2,0,0,0,34.2,34.2H1255a34.2,34.2,0,0,0,34.2-34.2V384.29a33.5,33.5,0,0,0-34.2-33.72H1123.76a33.49,33.49,0,0,0-34.2,33.72Z" transform="translate(-12.33 -144.04)"/></g><g id="g104"><path id="path106" class="cls-3" d="M1123.76,357.9a26.39,26.39,0,0,0-26.39,26.38v205.9a26.39,26.39,0,0,0,26.39,26.38H1255a26.39,26.39,0,0,0,26.39-26.38V384.28A26.39,26.39,0,0,0,1255,357.9Z" transform="translate(-12.33 -144.04)"/></g><g id="g108"><path id="path110" d="M1123.76,361.91a22.38,22.38,0,0,0-22.38,22.37v205.9a22.38,22.38,0,0,0,22.38,22.38H1255a22.37,22.37,0,0,0,22.37-22.38V384.29A22.37,22.37,0,0,0,1255,361.91Z" transform="translate(-12.33 -144.04)"/></g><g id="g112"><path id="path114" class="cls-3" d="M1145.5,513.3c13.24,0,24-7.17,24-23.61,0-15.86-10.74-23.6-24-23.6s-24,7.74-24,23.6c0,16.44,10.73,23.61,24,23.61" transform="translate(-12.33 -144.04)"/></g><g id="g116"><path id="path118" class="cls-3" d="M1197.5,410.51c1,2.06,1.06,2.62,3.66,3l.41,0v2.64h-13.72v-2.64c.79-.1,3.13,0,3.13-1a7.71,7.71,0,0,0-.53-1.74l-1-2.39h-8.1l-1.06,2.39a4.42,4.42,0,0,0-.45,1.48c0,1.13,2.07,1.13,3,1.26l.37,0v2.65h-11.64v-2.64c3.31-.3,4-2.07,5.16-4.36l7.31-15.65h5.85l7.65,16.94Zm-31.35-8.92c-1.27-3.37-2.81-4.63-7.15-4.63s-5.43,5.39-5.43,8.74c0,3.66,1.91,8.13,6.45,8.13,2.19,0,3.3-1.62,3.3-3.85,0-1.81-1.52-2.49-3.2-2.49v-2.41h12.07v2.4l-.48.07c-2.39.33-2.19,1.41-2.19,3.45v5c0,1-1.29,1.16-2.7.39l-1.84-1.11a20.93,20.93,0,0,1-2.55,1.45,15.17,15.17,0,0,1-4.46.44,11.33,11.33,0,0,1-11.62-11.71c0-6.7,5.13-11.8,12.24-11.8a16.54,16.54,0,0,1,6.56,1.51l1.5-1.25h2.18l.17,6.86a1.55,1.55,0,0,1-2.85.83Zm-34.39,8.7c0,2.31,0,3,4.55,3.24v2.69h-14.76v-2.69c2.92-.2,3.91-.87,3.91-3.24V399.75c0-2.37,0-3-3-3.26V393.6l5,.29c3.54,0,10.74-1.34,14.17.66a7,7,0,0,1,3.6,5.9c0,5.66-5.46,7.07-10.41,7.07h-3v2.77Zm19,186v5.18h-29.15V590.65h3.76c1.17,0,1.41-.71,1.41-1.73V567.76c0-.86-.16-1.89-1.41-1.89h-4.08V555h13.09c-6-2.51-7.68-6.5-7.68-11.29V523.55c0-1.18-.23-1.89-1.57-1.89l-3.76,0v-11h49.73v11l-3.77,0c-1.33,0-1.57.71-1.57,1.89v20.14c0,5.1-2.45,10.35-7.63,11.76,4.78.95,7.61,3.22,9.52,7.89s.22,9.64-3.1,13.09a8.53,8.53,0,0,1-1.5,1c2,.79,3.06,4.17,3.06,7.89l.16,4.77c.09.6.43,1,1.89,1l3.56,0V602h-7.79c-4,0-11.13-.61-13.17-5.71Zm13-127.63v-10h-6.48c-1.88,0-2.51-.74-2.51-3.27V436.48c0-1.41.47-1.7,1.3-1.7,2.47,0,3.62,4.27,3.62,9.47l10.85,0V423.89H1121.2v20.38l10.76,0c0-5.52,1.87-9.47,4.17-9.47,1,0,1.31.29,1.31,1.7v18.93c0,2.29-.63,3.26-2.5,3.26h-6.33v10h35.14Z" transform="translate(-12.33 -144.04)"/></g><g id="g120"><path id="path122" d="M1188.19,405.6l-2.79-6.26-2.91,6.26ZM1133,396.75c-.87,0-1.26.32-1.24.77v6.12h.93a8.78,8.78,0,0,0,3.31-.39c1.09-.48,1.27-1.75,1.27-2.84,0-2.83-1.63-3.66-4.27-3.66Z" transform="translate(-12.33 -144.04)"/></g><g id="g124"><path id="path126" d="M1145.5,510.74c11.83,0,21.42-6.4,21.42-21.07,0-14.17-9.59-21.08-21.42-21.08s-21.41,6.91-21.41,21.08c0,14.67,9.59,21.07,21.41,21.07Zm15.24-44.51v-5h-6.91c-1.26,0-2.23-1.46-2.23-2.91V433.71c0-1.26,1.65-1.52,3.4-1.52,3.6,0,7.29,3.08,7.29,9.44l5.62,0v-15.4h-44v15.4l5.63,0c0-6.36,3.69-9.44,7.28-9.44,1.76,0,3.41.26,3.41,1.52v24.61c0,1.45-1,2.91-2.24,2.91h-6.9v5Z" transform="translate(-12.33 -144.04)"/></g><g id="g128"><path id="path130" class="cls-3" d="M1145.73,505.2c4.75,0,8.59-3.92,8.59-15.53,0-13.13-3.84-15.54-8.59-15.54s-8.59,3.42-8.59,15.54c0,12.62,3.84,15.53,8.59,15.53" transform="translate(-12.33 -144.04)"/></g><g id="g132"><path id="path134" d="M1145.69,502.24c3,0,5.46-3.17,5.46-12.57,0-10.64-2.45-12.58-5.46-12.58s-5.46,2.76-5.46,12.58c0,10.22,2.45,12.57,5.46,12.57" transform="translate(-12.33 -144.04)"/></g><g id="g136"><path id="path138" d="M1162.86,522c0-2.51,1.15-2.86,2.41-2.86H1168l0-5.91H1150.4v5.89h3.18c3.18,0,2.79,1.44,2.79,3.27V544.2c-.29,2.32-2.24,5-7.83,5s-8.17-2.22-8.17-5.31V522c0-2.51,1.16-2.86,2.41-2.86h3.84v-5.91h-22.44v5.89h2.41c3.18,0,2.8,1.44,2.8,3.27v21.69c0,5.88,5.49,11,18.12,11,13.39,0,15.35-6.31,15.35-12.25V522h0Z" transform="translate(-12.33 -144.04)"/></g><g id="g140"><path id="path142" d="M1151.94,521.81c.78,0,1.31.88,1.31,2v19c0,2-2.13,3.66-4.76,3.66s-4.77-1.65-4.77-3.67v-19c0-1.09.53-2,1.32-2h6.9Z" transform="translate(-12.33 -144.04)"/></g><g id="g144"><path id="path146" d="M1169,593.52c-1.69,0-4.47.18-5.23-1.15-1.28-2.9.33-8.19-1.51-11.6-.87-1.88-3.06-3-4.46-3.59a15.51,15.51,0,0,0,4.9-2.56c3.36-2.87,3.38-8.34,1.32-12.35-1.88-3.14-5.17-4.6-10.21-4.6l-29.78,0,0,5.77,3.71-.07a2.24,2.24,0,0,1,2,2.17v25.6a2.26,2.26,0,0,1-2,2.17l-3.71-.07,0,5.77h24V593.2h-4.57a2.56,2.56,0,0,1-2.09-2.36l0-10.54h6.14c1.87,0,3.75,1.21,4.08,4.32.26,4.06-.22,6.1,1.2,9.69,1.87,3.87,5.37,4.94,9.13,4.94H1169v-5.74Z" transform="translate(-12.33 -144.04)"/></g><g id="g148"><path id="path150" d="M1144.3,588.92h0a1.28,1.28,0,0,0,1.37,1.34h3.18l-.16-5.18c0-1.41-.28-2-1.38-2h-2.93l-.08,5.79Z" transform="translate(-12.33 -144.04)"/></g><g id="g152"><path id="path154" class="cls-3" d="M1147.53,563.38c2.18,0,5.32,1,5.89,3.65a6.37,6.37,0,0,1-1.53,5.81,5.89,5.89,0,0,1-3.74,1.19h-6.84V563.35l6.21,0Z" transform="translate(-12.33 -144.04)"/></g><g id="g156"><path id="path158" d="M1150.49,568.9a2.7,2.7,0,0,1-2.67,2.61h-3.72v-5.64h2.78a3.53,3.53,0,0,1,2.7.91,2.75,2.75,0,0,1,.91,2.12" transform="translate(-12.33 -144.04)"/></g><g id="g160"><path id="path162" class="cls-3" d="M1195.15,375.78,1247.88,409c-1.62,6.26,3,11.48.85,17.47-.57,9-10.35,10.82-15.66,16.43-4.94,4.83-11.49,5.5-17.38,8l-.66-.19c-1.43-4.75-5.61-8.35-7.32-13-4.27-1.62-9.31-2-13.38.18-3.8,2.85-5.89,7.41-5.23,11.68.1,4.37,4.75,7.41,8,9.31-4.18,2.94-1.71,9.11-2.09,13-.66,13.2,15.48,18.79,15,31.9-1.23,8.54-2.09,18.42,3.42,25.25,4.46,3.32,4.36,8.83,7.12,13,.29,3.89,4.65,6.56,2.76,10.73,2.65,2.94-2.09,3.23-2.09,5.89.38,2.37-2.29,2-3.43,3-3.22-.28-5.12,3.23-7.3,4.94l-5.22,6a64.17,64.17,0,0,0-18.42,11.87c-2.28.67-5.22.57-6.17,3.42-.77,1.14-.48,2.37-.67,3.61-3.42,3.32-6.08,7.31-6.17,12,.09,3.33,1.52,6.08,2.28,9.12h59.72c2-1.33,6-1.51,5.69-5-1.43-2.09-4.84-3.14-5.5-5.9,1.61-1.51,4.83-.47,6.17-2.75a395.82,395.82,0,0,1,5.23-46.43,311.11,311.11,0,0,0-10.74-48.32,134.77,134.77,0,0,0-6.55-25.54l.19-1.62c7.6-8.64,11.4-18.89,18.7-27.82,5.41-10.54,8.65-22.12,12.25-33.42-.38-2.75.38-6.17-2.66-7.6-3.13-2.56-6.93-.66-10.25-1.8L1192,372.05c-4-1.14-8.39,4.62-11.2,7.7-.57,1,1.33,2.46,2.57,3.23,4.74,1.32,5.72-5,8.95-7.35a3.3,3.3,0,0,1,2.79.15" transform="translate(-12.33 -144.04)"/></g><g id="g164"><path id="path166" d="M1202.3,598.78c-3.52-.85-6.36-3.41-9.78-4.37-5.51,5-11.11,9.5-13.49,16.24a15.78,15.78,0,0,0-.51,1.93l50.1-.06c-.48-1.33-2.11-1.4-3.07-2.63h0c-1.32-13.19.77-26.77,4.28-38.93-8.36,9.78-19.66,17.76-27.53,27.82" transform="translate(-12.33 -144.04)"/></g><g id="g168"><path id="path170" d="M1222.34,461.59c-.1,1.51.94,2.56,1.8,3.6a39.46,39.46,0,0,0,7.5-8.83h0a81.27,81.27,0,0,0-9.3,5.23" transform="translate(-12.33 -144.04)"/></g><path id="path184" d="M983.66,506.64H485.76v-5.47h497.9Z" transform="translate(-12.33 -144.04)"/><g id="g186"><path id="path188" d="M523.43,612.39a20,20,0,0,1-5.16.72,21,21,0,0,1-8.11-1.6,20.34,20.34,0,0,1-6.74-4.54,20.6,20.6,0,0,1-4.49-7,24.77,24.77,0,0,1,0-17.62,20.79,20.79,0,0,1,4.49-7,20.47,20.47,0,0,1,6.74-4.53,21.1,21.1,0,0,1,8.11-1.6A20.59,20.59,0,0,1,533,575.38a20.79,20.79,0,0,1,4.49,7,24.62,24.62,0,0,1,0,17.46,20.82,20.82,0,0,1-2.82,5.14l-5.43-6.53-8.11,7.13,4.92,5.9a21.39,21.39,0,0,1-2.7.92m18.34-45.29a32.63,32.63,0,0,0-10.69-7,34.08,34.08,0,0,0-25.77.1,33.07,33.07,0,0,0-10.71,7.16,32.62,32.62,0,0,0-7.13,10.77A34.5,34.5,0,0,0,485,591.18a35.23,35.23,0,0,0,2.52,13.29,32.68,32.68,0,0,0,7,10.77,31.41,31.41,0,0,0,10.71,7,35,35,0,0,0,13.06,2.48,33.64,33.64,0,0,0,15.34-3.69l6.58,7.95,8.53-7.16-6.31-7.56a36.45,36.45,0,0,0,6.39-10,33.23,33.23,0,0,0,2.71-13.1,34.64,34.64,0,0,0-2.57-13.31,32.67,32.67,0,0,0-7.17-10.77" transform="translate(-12.33 -144.04)"/></g><path id="path190" d="M560.36,603.12h30V592.35h-30Z" transform="translate(-12.33 -144.04)"/><g id="g192"><path id="path194" d="M643.34,591.85a28,28,0,0,0-6.54-3.42c-2.43-.92-6.47-2.1-12.35-3.63-6.73-1.75-9.43-3.28-10.51-4.26a5.54,5.54,0,0,1-2.07-4.23,4.78,4.78,0,0,1,1.4-3.56,11.28,11.28,0,0,1,4.53-2.59,20.33,20.33,0,0,1,6.41-1,24.5,24.5,0,0,1,9.24,1.65,20.32,20.32,0,0,1,6.77,4.36l1.42,1.42,7.85-7.86-1.08-1.4A23.46,23.46,0,0,0,638.27,560a38.21,38.21,0,0,0-13.88-2.42A34.73,34.73,0,0,0,614,559.18a21.51,21.51,0,0,0-8.61,4.86,17.9,17.9,0,0,0-4.59,6.46,17.29,17.29,0,0,0-1.18,6,19.14,19.14,0,0,0,1.18,6.63,14.49,14.49,0,0,0,4,5.81,24.64,24.64,0,0,0,6.42,4,75.88,75.88,0,0,0,11.45,3.59,66.94,66.94,0,0,1,10.51,3.3,7.79,7.79,0,0,1,3.52,2.72,6,6,0,0,1,.91,3,5.66,5.66,0,0,1-1.17,3.58,9.79,9.79,0,0,1-3.88,2.82c-3.31,1.46-7.59,1.61-12.95.24A24.48,24.48,0,0,1,607.06,604l-1.44-1.89-7.88,8.54.88,1.31c2.36,3.51,6.11,6.55,11.16,9a35.3,35.3,0,0,0,15.75,3.73,31.64,31.64,0,0,0,9.39-1.37,23.77,23.77,0,0,0,7.82-4,18.92,18.92,0,0,0,5.26-6.34,17.72,17.72,0,0,0,1.88-8.08,16,16,0,0,0-1.82-7.73,16.26,16.26,0,0,0-4.72-5.41" transform="translate(-12.33 -144.04)"/></g><g id="g196"><path id="path198" d="M706,605.52a22.46,22.46,0,0,1-17.33,7.59,26,26,0,0,1-9.52-1.8,17.54,17.54,0,0,1-7.37-5.26,20.06,20.06,0,0,1-4-7.35,28.66,28.66,0,0,1-1.07-7.52,26.54,26.54,0,0,1,1.47-9,19.36,19.36,0,0,1,4.14-6.9,18.63,18.63,0,0,1,6.61-4.45,23,23,0,0,1,8.74-1.61A23.48,23.48,0,0,1,697,571a24.45,24.45,0,0,1,7.52,5.22l1.39,1.39,7.88-7.61-1.06-1.41a24.54,24.54,0,0,0-7-6.14,31.2,31.2,0,0,0-9.16-3.76,36.47,36.47,0,0,0-22.6,1.46,30.75,30.75,0,0,0-10.63,7.21,31.91,31.91,0,0,0-6.71,10.78,36.53,36.53,0,0,0-2.33,13,38.09,38.09,0,0,0,2.38,13.64,29.22,29.22,0,0,0,17.61,17.57,38.73,38.73,0,0,0,13.77,2.38A35.38,35.38,0,0,0,699.33,623a30,30,0,0,0,9-4.59,27.48,27.48,0,0,0,5.31-5.24l1-1.3-7.16-8Z" transform="translate(-12.33 -144.04)"/></g><g id="g200"><path id="path202" d="M766,585H733.3V558.38h-12V624h12V596.43H766V624h12v-65.6H766Z" transform="translate(-12.33 -144.04)"/></g><g id="g204"><path id="path206" d="M812,611.51a20.15,20.15,0,0,1-6.72-4.57,21.69,21.69,0,0,1-4.56-7.05,23,23,0,0,1-1.65-8.71,23.27,23.27,0,0,1,1.65-8.8,21.53,21.53,0,0,1,4.54-7A20.77,20.77,0,0,1,820,569.25a20.13,20.13,0,0,1,7.89,1.6,20.74,20.74,0,0,1,11.33,11.53,23.28,23.28,0,0,1,1.66,8.8,24.42,24.42,0,0,1-1.58,8.83,20.66,20.66,0,0,1-4.41,7,20.14,20.14,0,0,1-6.68,4.52,21.43,21.43,0,0,1-16.24,0m31.52-44.41a32.48,32.48,0,0,0-10.68-7A33.7,33.7,0,0,0,820,557.59a33.44,33.44,0,0,0-23.67,9.74,32.46,32.46,0,0,0-7.13,10.77,35.45,35.45,0,0,0,0,26.38,32.13,32.13,0,0,0,17.9,17.81A34.21,34.21,0,0,0,820,624.77a32.93,32.93,0,0,0,30.67-20.42,34.2,34.2,0,0,0,2.57-13.17,34.83,34.83,0,0,0-2.57-13.31,32.54,32.54,0,0,0-7.18-10.77" transform="translate(-12.33 -144.04)"/></g><g id="g208"><path id="path210" d="M883,611.51a20.29,20.29,0,0,1-6.73-4.57,21.83,21.83,0,0,1-4.55-7.05,23,23,0,0,1-1.66-8.71,23.28,23.28,0,0,1,1.66-8.8,21.53,21.53,0,0,1,4.54-7A20.77,20.77,0,0,1,891,569.25a20.13,20.13,0,0,1,7.89,1.6,21.17,21.17,0,0,1,6.76,4.54,20.93,20.93,0,0,1,4.57,7,23.28,23.28,0,0,1,1.66,8.8A24.42,24.42,0,0,1,910.3,600a20.66,20.66,0,0,1-4.41,7,20.14,20.14,0,0,1-6.68,4.52,21.43,21.43,0,0,1-16.24,0m31.52-44.41a32.59,32.59,0,0,0-10.68-7A33.7,33.7,0,0,0,891,557.59a33.48,33.48,0,0,0-23.68,9.74,32.59,32.59,0,0,0-7.12,10.77,35.32,35.32,0,0,0,0,26.38,32.13,32.13,0,0,0,17.9,17.81A34.18,34.18,0,0,0,891,624.77a32.89,32.89,0,0,0,30.66-20.42,34,34,0,0,0,2.58-13.17,34.83,34.83,0,0,0-2.57-13.31,32.69,32.69,0,0,0-7.18-10.77" transform="translate(-12.33 -144.04)"/></g><g id="g212"><path id="path214" d="M944.91,612.5V558.38h-12V624h48.52V612.5Z" transform="translate(-12.33 -144.04)"/></g></g></g></g></g></svg>