<svg id="Calque_1" data-name="Calque 1" xmlns="http://www.w3.org/2000/svg" viewBox="0 0 800 350.6"><defs><style>.cls-1{fill:#003263;}</style></defs><title>logo-ffgolf</title><path d="M937.3,302.2l3.5,3.5c-.2.2-.3.4-.5.6-1.4-.6-2.8-1.3-5.1-2.3h-6a32.94,32.94,0,0,0,3.9-2.4c2.9-2.4,3.8-6.1,5.4-9.3,2.6-5.4.2-9.4-4-12.5,0-.3-.1-.4,0-.5.2-.3.5-.5,1-1.1-1.1-.2-2-.3-2.9-.5l-.6.6c-1.8-1.8-3.6-3.7-5.7-5.7a19.37,19.37,0,0,0-.8,2.1c-3.1-2.2-6.2-4.3-9.4-6.5.3-2.2.6-4.2,1-6.7-.6-.4-1.7-1.2-2.9-2,.2-.2-.2.1-.5.5-.4-.9-.9-1.7-1.7-3.4.3-3,.6-6.9.9-9.8,3.2-5,7.7-6.6,12-8.9.4.3.9.7,1.5,1.1,1.6-.4,3.4-.8,5-1.2l4.4,4.4a7.37,7.37,0,0,1,6.7,2.5,14.35,14.35,0,0,1,3.3,10.3c-.8,1.4-1.4,2.6-2.2,3.9.3.4.6,1,1.2,1.9-.5,1.1-1.2,2.6-2,4.2,4.3,1.3,6.4-2.5,9.3-4.1,0-2.9-.1-5.5,0-8.1.2-2.4.7-4.8,1.1-7.8-1.3.6-2,.9-2.7,1.2-.7-.3-1.6-.8-2.5-1.2v-3.7h2.9c.1-1.5.2-2.8.3-4.2H959c.6,1,1.2,2,1.8,2.9,1.3.1,2.5.1,4,.2-.8,1.6-1.5,3-2.1,4.3,5.3,5.8,5.3,5.8,5.3,12.6a19.86,19.86,0,0,1,2.1,17.7,9.94,9.94,0,0,1-5.4,6.3c-3.1,1.5-6.1,3.1-9.3,4.7,0,1.2-.4,2.7.1,3.9.7,2,2.5,3.6,2.9,5.6.4,1.8,2.2,2.2,2.6,3.8h5c-3.3,2-6.3,3.9-9.3,5.7.3-1.5.7-3.3,1-4.9-3.2-3.9-4.3-9.3-10.2-10.5-6.4,1.6-6.8,8.2-10.2,12.8ZM510.4,380c2.6-1.1,3.4,2.7,6.2,5.8,3.4,3.9,13,2.6,15.5-1.2,5.4-8.2,2.2-23.8-10.5-24.2-8.4-.2-16.1,5.4-23,16.1-9.4-10.7-21.1-15.8-35-16.1-31.2-.6-48.3,15.8-48.9,43.3-.4,16.4,3.6,29.3,18.9,37.4l-.7,1.2c-20,3.8-26.1,10.2-26.1,24.1,0,15.3,3.4,21.9,15.2,34.5-10.3,6.6-11.5,7.9-14.8,13-2.8,4.2-4.3,14.7-2.5,22.2,2.3,9.4,8.3,14.6,18.8,20,12.2,6.3,26.6,7.9,42.5,7.9,20.5,0,35-3.9,47.5-14.2,10.9-9,18-18.2,18-34,0-13.5-1.1-23-7.5-30.3s-10.9-13.1-21.3-14.8c-14.9-2.4-47-4.8-60.2-2.4-18.9,3.4-21.9-1.5-21.9-5.2,0-4.3,5.8-9.1,18.8-11.6,8.4-1.6,16.2,1.9,22.9,1.3,13-1.1,22.5-4.3,33.1-11.8s15.9-18.7,15.9-33.4c0-8.7-1.3-19-5.1-23.4C509.2,380.3,507.8,381.1,510.4,380ZM445.2,501s11.9-8,32.4-7.5c29,.7,41.3,8.3,39,26.8-1.4,10.9-4.4,15.3-14.5,23.5s-22.2,8.4-37.7,8.4c-24.3,0-35.6-10.4-35.6-23s7.3-21.8,16.4-28.2Zm34.6-72.9c-2,5.3-7.1,9.6-17.1,9.6-9.8,0-13.7-2.9-15.8-8.1s-4.6-8.9-4.6-26.7c0-12.3,1-14.9,3.2-20.2s8.4-10.7,17.7-10.7c7,0,11.9,4.4,15.5,8.1s4.3,11.1,4.3,23.8c.1,20.4-1.1,19-3.2,24.2Zm272,50.2v14.1H674.7V478.3h23.6V287.5H674.7V272.4h22.8c13.2,0,22.8-.8,28.9-2.4V478.3Z" transform="translate(-200 -213.4)"/><path d="M944.4,324.6A55.6,55.6,0,1,1,1000,269,55.67,55.67,0,0,1,944.4,324.6Zm0-101.6a46.1,46.1,0,1,0,46.1,46.1A46.18,46.18,0,0,0,944.4,223ZM411.8,293.5a18.11,18.11,0,0,0-2.2-7A13.79,13.79,0,0,1,411.8,293.5Z" transform="translate(-200 -213.4)"/><path d="M411.8,294a14,14,0,0,1-28,0,14.45,14.45,0,0,1,1.8-6.9c0-2.1-1-3.7-4.2-3-6.1,1.3-23.2,5.3-23.2,41V364h25.6v14.7H358.2v99.1h25.6v14.7h-77V477.8h24V378.7h-24V364h24V341.8s-.5-70.6,53-68.5c15.3,0,22.6,7.2,25.8,13.4a21.72,21.72,0,0,1,2.2,7v.3Zm459.4,0a14,14,0,0,1-28,0,14.45,14.45,0,0,1,1.8-6.9c0-2.1-1-3.7-4.2-3-6.1,1.3-23.2,5.3-23.2,41V364h25.6v14.7H817.6v99.1h25.6v14.7h-77V477.8h24V378.7h-24V364h24V341.8s-.5-70.6,53-68.5c15.3,0,22.6,7.2,25.8,13.4a21.72,21.72,0,0,1,2.2,7v.3Z" transform="translate(-200 -213.4)"/><path class="cls-1" d="M304,293.5a18.11,18.11,0,0,0-2.2-7A13.79,13.79,0,0,1,304,293.5Z" transform="translate(-200 -213.4)"/><path d="M305,294a14,14,0,0,1-28,0,14.45,14.45,0,0,1,1.8-6.9c0-2.1-1-3.7-4.2-3-6.1,1.3-23.2,5.3-23.2,41V364H277v14.7H251.4v99.1H277v14.7H200V477.8h24V378.7H200V364h24V341.8s-.5-70.6,53-68.5c15.3,0,22.6,7.2,25.8,13.4a21.72,21.72,0,0,1,2.2,7v.3Zm297.8,67.5c-34.9,0-63.2,30.5-63.2,68.1s28.3,68.1,63.2,68.1S666,467.2,666,429.6,637.7,361.5,602.8,361.5Zm.1,125.7c-23.1,0-30.8-20.1-29.9-58.3.9-40.4,8.4-56.9,29.9-56.9,26.6,0,29.9,17.2,29.9,56.9C632.8,475.9,622,487.2,602.9,487.2Z" transform="translate(-200 -213.4)"/></svg>