<svg id="Layer_1" data-name="Layer 1" xmlns="http://www.w3.org/2000/svg" viewBox="0 0 81.89 44.79"><defs><style>.cls-1{fill:#010101;}</style></defs><title>pro-golf-tour</title><path d="M695.35,440.5A6.91,6.91,0,0,0,697,445c3.69,4.12,12.79,2,22.24-4.54h-3.92c-7.82,4.95-14.91,6.47-17.85,3.23a5.49,5.49,0,0,1-1.31-3.23Z" transform="translate(-667.92 -402.36)"/><path d="M708.42,418c.62-.65,1.27-1.3,1.94-1.93,11-10.47,23.24-15.26,27.36-10.71,2.22,2.44,1.62,7.09-1.1,12.48l-.08.16h2.72c2.63-5.7,3.12-10.81.68-13.53-4.67-5.22-18-.46-29.72,10.61-1,1-2,1.93-2.9,2.92Z" transform="translate(-667.92 -402.36)"/><path class="cls-1" d="M667.92,421.29h7.24c2.52,0,3.13,1.27,3.13,3V425c0,1.29-.56,2.77-2.44,2.77h-5.27V430h-2.66Zm2.66,4.33h4.12a.81.81,0,0,0,.86-.92v-.34c0-.58-.28-.92-1.09-.92h-3.89Z" transform="translate(-667.92 -402.36)"/><path class="cls-1" d="M679.92,421.29h8c2,0,2.59,1,2.59,2.57v.55c0,1.16-.26,1.84-1.48,2.13v0c.79.15,1.45.49,1.45,1.92V430h-2.66v-1c0-.91-.26-1.21-1.08-1.21h-4.18V430h-2.65Zm2.65,4.26H687c.72,0,1-.29,1-.91v-.29c0-.77-.38-.91-1.22-.91h-4.15Z" transform="translate(-667.92 -402.36)"/><path class="cls-1" d="M692.08,424.33c0-2.54,1.42-3.14,3.81-3.14h4.26c2.4,0,3.82.6,3.82,3.14v2.58c0,2.53-1.42,3.13-3.82,3.13h-4.26c-2.39,0-3.81-.6-3.81-3.13Zm2.73,1.75c0,1.26.26,1.74,1.52,1.74h3.39c1.26,0,1.52-.48,1.52-1.74v-.93c0-1.08-.26-1.73-1.66-1.73h-3.11c-1.4,0-1.66.65-1.66,1.73Z" transform="translate(-667.92 -402.36)"/><path class="cls-1" d="M716.67,426.85c0,2.36-.76,3.19-2.93,3.19h-4.83c-2.34,0-3.08-1.05-3.08-3.24v-2.37c0-2.18.74-3.24,3.08-3.24h4.43c1.55,0,3.22.39,3.22,2.38v.31h-1.1c0-1.61-.5-1.73-3.39-1.73h-3c-1.12,0-2,.34-2,1.84v3.25c0,1.51.91,1.85,2,1.85h4.58c1.18,0,1.89-.41,1.89-1.61v-.87h-4.44v-1h5.61Z" transform="translate(-667.92 -402.36)"/><path class="cls-1" d="M718.71,424.43c0-2.18.74-3.24,3.08-3.24h5c2.35,0,3.09,1.06,3.09,3.24v2.37c0,2.19-.74,3.24-3.09,3.24h-5c-2.34,0-3.08-1.05-3.08-3.24Zm10-.44c0-1.51-.9-1.84-2-1.84h-4.75c-1.12,0-2,.33-2,1.84v3.25c0,1.51.91,1.85,2,1.85h4.75c1.13,0,2-.34,2-1.85Z" transform="translate(-667.92 -402.36)"/><polygon class="cls-1" points="64.21 18.93 65.38 18.93 65.38 26.63 72.1 26.63 72.1 27.59 64.21 27.59 64.21 18.93"/><polygon class="cls-1" points="73.64 18.93 81.89 18.93 81.89 19.89 74.81 19.89 74.81 22.65 81.62 22.65 81.62 23.6 74.81 23.6 74.81 27.59 73.64 27.59 73.64 18.93"/><polygon class="cls-1" points="27.4 31.28 24.73 31.28 24.73 30.7 30.77 30.7 30.77 31.28 28.11 31.28 28.11 35.97 27.4 35.97 27.4 31.28"/><path class="cls-1" d="M699.85,435c0-1.33.45-2,1.87-2h3c1.42,0,1.87.64,1.87,2v1.44c0,1.34-.45,2-1.87,2h-3c-1.42,0-1.87-.64-1.87-2Zm6.07-.27c0-.91-.55-1.12-1.24-1.12H701.8c-.69,0-1.24.21-1.24,1.12v2c0,.92.55,1.12,1.24,1.12h2.88c.69,0,1.24-.2,1.24-1.12Z" transform="translate(-667.92 -402.36)"/><path class="cls-1" d="M708.77,433.06h.71V437c0,.51.17.8,1.14.8h2.47c1,0,1.15-.29,1.15-.8v-3.94H715V437c0,1.07-.54,1.39-1.88,1.39h-2.43c-1.34,0-1.87-.32-1.87-1.39Z" transform="translate(-667.92 -402.36)"/><path class="cls-1" d="M717.17,433.06h4.21c1.53,0,1.77.5,1.77,1.49V435c0,.74-.43.95-1,1h0c.73.13.9.51.9,1v1.35h-.67v-1.16c0-.82-.4-.92-1-.92h-3.47v2.08h-.72Zm4.14,2.6c.79,0,1.12-.21,1.12-.76v-.48c0-.59-.25-.78-1.3-.78h-3.24v2Z" transform="translate(-667.92 -402.36)"/></svg>